<?xml version="1.0" encoding="UTF-8" standalone="no"?>
<svg
   version="1.1"
   x="0px"
   y="0px"
   viewBox="0 0 358.57612 66.97415"
   xml:space="preserve"
   id="svg62"
   sodipodi:docname="logo_cropped.svg"
   inkscape:version="1.1 (c68e22c387, 2021-05-23)"
   width="358.57611"
   height="66.974152"
   xmlns:inkscape="http://www.inkscape.org/namespaces/inkscape"
   xmlns:sodipodi="http://sodipodi.sourceforge.net/DTD/sodipodi-0.dtd"
   xmlns="http://www.w3.org/2000/svg"
   xmlns:svg="http://www.w3.org/2000/svg"
   xmlns:rdf="http://www.w3.org/1999/02/22-rdf-syntax-ns#"
   xmlns:cc="http://creativecommons.org/ns#"
   xmlns:dc="http://purl.org/dc/elements/1.1/"><metadata
   id="metadata68"><rdf:RDF><cc:Work
       rdf:about=""><dc:format>image/svg+xml</dc:format><dc:type
         rdf:resource="http://purl.org/dc/dcmitype/StillImage" /></cc:Work></rdf:RDF></metadata><defs
   id="defs66" /><sodipodi:namedview
   pagecolor="#414141"
   bordercolor="#666666"
   borderopacity="1"
   objecttolerance="10"
   gridtolerance="10"
   guidetolerance="10"
   inkscape:pageopacity="0"
   inkscape:pageshadow="2"
   inkscape:window-width="1920"
   inkscape:window-height="1017"
   id="namedview64"
   showgrid="false"
   inkscape:zoom="3.0763542"
   inkscape:cx="175.69498"
   inkscape:cy="25.192158"
   inkscape:window-x="-8"
   inkscape:window-y="238"
   inkscape:window-maximized="1"
   inkscape:current-layer="svg62"
   inkscape:pagecheckerboard="true" />
<style
   type="text/css"
   id="style2">
	.st0{display:none;}
	.st1{fill:#9E0E37;}
	.st2{display:inline;}
</style>
<g
   id="Layer_1"
   style="fill:#ffffff"
   inkscape:export-xdpi="268.0437"
   inkscape:export-ydpi="268.0437"
   transform="translate(-18.6,-13.025846)">
	<path
   class="st0"
   d="M 94.3,7.6"
   id="path4"
   style="fill:#ffffff" />
	<path
   class="st0"
   d="M 105.7,-64.4"
   id="path6"
   style="fill:#ffffff" />
	<path
   class="st0"
   d="M 295.4,-3.6"
   id="path8"
   style="fill:#ffffff" />
	<g
   id="g32"
   style="fill:#ffffff">
		<path
   d="m 22.9,62.7 v 14.9 c 0,1.1 -0.9,2 -2,2 h -0.3 c -1.1,0 -2,-0.9 -2,-2 V 41.2 c 0,-1.1 0.9,-2 2,-2 h 5.1 c 6.1,0 9,2.6 9,9.3 v 1.8 c 0,3.6 -0.8,5.8 -2,7.1 -0.7,0.8 -0.7,1.9 0,2.7 1.1,1.2 1.7,3.3 1.7,7 0,2.7 0,7.3 0.2,10.3 0.1,1.1 -0.8,2.1 -2,2.1 h -0.2 c -1,0 -1.9,-0.8 -2,-1.8 -0.3,-3.1 -0.2,-8 -0.2,-10.3 0,-5.2 -0.7,-6.7 -4.7,-6.7 H 25 c -1.3,0 -2.1,0.9 -2.1,2 z m 0,-7.6 c 0,1.1 0.9,2 2,2 h 0.7 c 3.8,0 4.8,-2.2 4.8,-6.5 v -1.8 c 0,-3.7 -1,-5.9 -5,-5.9 h -0.5 c -1.1,0 -2,0.9 -2,2 z"
   id="path10"
   style="fill:#ffffff" />
		<path
   class="st1"
   d="M 53.7,39.2 H 54 c 1.1,0 2,0.9 2,2 v 17.5 0 C 57.6,55.2 58,48.3 64.1,40.4 89.3,8 261.6,6.8 372.3,24.1 c 12.2,1.9 -1.9,2.5 -5.5,2 C 270.4,11.3 99.7,12.6 70.3,40.6 64.8,45.9 62,53.4 61.9,56 c -0.1,2.6 7.2,21 7.2,21 0.4,1.3 -0.5,2.6 -1.9,2.6 h -0.5 c -0.8,0 -1.6,-0.5 -1.9,-1.4 l -4.7,-14 c -0.6,-1.7 -2.8,-1.8 -3.6,-0.3 l -0.5,1 c 0,0.3 0,0.6 0,1 v 11.8 c 0,1.1 -0.9,2 -2,2 h -0.3 c -1.1,0 -2,-0.9 -2,-2 V 41.2 c 0,-1.1 0.9,-2 2,-2 z"
   id="path12"
   style="fill:#ae0047;fill-opacity:1" />
		<path
   d="M 84.5,77.6 V 41.2 c 0,-1.1 0.9,-2 2,-2 h 1.7 c 0.9,0 1.7,0.6 1.9,1.4 2.4,8.4 7.4,27.4 8,30.5 h 0.1 C 98,65.7 97.9,60 97.9,53.5 V 41.2 c 0,-1.1 0.9,-2 2,-2 h 0.1 c 1.1,0 2,0.9 2,2 v 36.4 c 0,1.1 -0.9,2 -2,2 H 98.5 C 97.6,79.6 96.8,79 96.6,78.2 94.2,69.6 89,49.7 88.3,46.7 h -0.1 c 0.3,4.9 0.4,11.3 0.4,18.6 v 12.4 c 0,1.1 -0.9,2 -2,2 h -0.1 c -1.1,-0.1 -2,-1 -2,-2.1 z"
   id="path14"
   style="fill:#ffffff" />
		<path
   d="m 121.7,43.2 h -2.6 c -1.1,0 -2,-0.9 -2,-2 v 0 c 0,-1.1 0.9,-2 2,-2 h 13.4 c 1.1,0 2,0.9 2,2 v 0 c 0,1.1 -0.9,2 -2,2 H 130 c -1.1,0 -2,0.9 -2,2 v 32.4 c 0,1.1 -0.9,2 -2,2 h -0.3 c -1.1,0 -2,-0.9 -2,-2 V 45.2 c 0,-1.1 -0.9,-2 -2,-2 z"
   id="path16"
   style="fill:#ffffff" />
		<path
   d="m 173.9,41.2 v 36.4 c 0,1.1 -0.9,2 -2,2 h -0.3 c -1.1,0 -2,-0.9 -2,-2 V 41.2 c 0,-1.1 0.9,-2 2,-2 h 0.3 c 1.1,0 2,0.9 2,2 z"
   id="path18"
   style="fill:#ffffff" />
		<path
   d="M 191.9,77.6 V 41.2 c 0,-1.1 0.9,-2 2,-2 h 1.7 c 0.9,0 1.7,0.6 1.9,1.4 2.4,8.4 7.4,27.4 8,30.5 h 0.1 C 205.4,65.7 205.3,60 205.3,53.4 V 41.2 c 0,-1.1 0.9,-2 2,-2 h 0.1 c 1.1,0 2,0.9 2,2 v 36.4 c 0,1.1 -0.9,2 -2,2 h -1.5 c -0.9,0 -1.7,-0.6 -1.9,-1.4 -2.4,-8.6 -7.6,-28.5 -8.3,-31.5 h -0.1 c 0.3,4.9 0.4,11.3 0.4,18.6 v 12.4 c 0,1.1 -0.9,2 -2,2 h -0.1 c -1.1,-0.1 -2,-1 -2,-2.1 z"
   id="path20"
   style="fill:#ffffff" />
		<path
   d="m 231.7,78 -6.3,-36.4 c -0.2,-1.2 0.7,-2.3 1.9,-2.3 h 0.6 c 1,0 1.8,0.7 2,1.7 l 2.4,16.4 c 0.8,5.6 2,12.5 2.4,16.7 h 0.1 c 0.3,-4 1.6,-11 2.4,-16.6 l 2.5,-16.6 c 0.1,-1 1,-1.7 2,-1.7 h 0.5 c 1.2,0 2.2,1.1 1.9,2.3 L 237.7,78 c -0.2,0.9 -1,1.6 -1.9,1.6 h -2.1 c -1,0 -1.8,-0.7 -2,-1.6 z"
   id="path22"
   style="fill:#ffffff" />
		<path
   d="m 271.3,60 h -5.1 c -1.1,0 -2,0.9 -2,2 v 11.6 c 0,1.1 0.9,2 2,2 h 6 c 1.2,0 2.1,1.1 2,2.3 v 0 c -0.1,1 -1,1.7 -2,1.7 h -10.3 c -1.1,0 -2,-0.9 -2,-2 V 41.2 c 0,-1.1 0.9,-2 2,-2 h 9.9 c 1.1,0 2,0.9 2,2 v 0 c 0,1.1 -0.9,2 -2,2 h -5.6 c -1.1,0 -2,0.9 -2,2 v 8.9 c 0,1.1 0.9,2 2,2 h 5.1 c 1.1,0 2,0.9 2,2 v 0 c 0,1.1 -0.9,1.9 -2,1.9 z"
   id="path24"
   style="fill:#ffffff" />
		<path
   d="M 290,77.6 V 41.2 c 0,-1.1 0.9,-2 2,-2 h 1.7 c 0.9,0 1.7,0.6 1.9,1.4 2.4,8.4 7.4,27.4 8,30.5 h 0.1 C 303.5,65.7 303.4,60 303.4,53.4 V 41.2 c 0,-1.1 0.9,-2 2,-2 h 0.1 c 1.1,0 2,0.9 2,2 v 36.4 c 0,1.1 -0.9,2 -2,2 H 304 c -0.9,0 -1.7,-0.6 -1.9,-1.4 -2.4,-8.6 -7.6,-28.5 -8.3,-31.5 h -0.1 c 0.3,4.9 0.4,11.3 0.4,18.6 v 12.4 c 0,1.1 -0.9,2 -2,2 H 292 c -1.1,-0.1 -2,-1 -2,-2.1 z"
   id="path26"
   style="fill:#ffffff" />
		<path
   d="m 329.7,41.2 v 36.4 c 0,1.1 -0.9,2 -2,2 h -0.3 c -1.1,0 -2,-0.9 -2,-2 V 41.2 c 0,-1.1 0.9,-2 2,-2 h 0.3 c 1.2,0 2,0.9 2,2 z"
   id="path28"
   style="fill:#ffffff" />
		<path
   d="m 364.3,49.1 v 20.3 c 0,7.1 -2.9,10.6 -8.9,10.6 -6.2,0 -8.5,-4 -8.5,-10.6 V 49.2 c 0,-6.9 3.1,-10.5 8.8,-10.5 6,0 8.6,4.1 8.6,10.4 z m -13,-0.2 v 20.9 c 0,4.5 1.6,6.3 4.4,6.3 2.9,0 4.3,-1.8 4.3,-6.5 V 49 c 0,-4.3 -1.5,-6.3 -4.4,-6.3 -2.9,-0.1 -4.3,1.9 -4.3,6.2 z"
   id="path30"
   style="fill:#ffffff" />
	</g>
</g>
<g
   id="Layer_2"
   class="st0"
   transform="translate(-18.6,-13.025846)">
	<g
   class="st2"
   id="g43">
		<path
   d="m 187,63.5 v 20.2 c 0,1.5 -1.2,2.7 -2.7,2.7 H 184 c -1.5,0 -2.7,-1.2 -2.7,-2.7 V 34.3 c 0,-1.5 1.2,-2.7 2.7,-2.7 h 6.7 c 8.1,0 12.1,3.5 12.1,12.6 v 2.5 c 0,5 -1.1,8 -2.8,9.7 -0.9,1 -1,2.5 0,3.5 1.6,1.7 2.3,4.5 2.3,9.5 0,3.7 0,9.9 0.2,14 0.1,1.6 -1.1,2.9 -2.7,2.9 h -0.2 c -1.4,0 -2.6,-1.1 -2.7,-2.5 -0.3,-4.2 -0.3,-10.9 -0.3,-14 0,-7.1 -1,-9.1 -6.3,-9.1 h -0.6 c -1.5,0.1 -2.7,1.3 -2.7,2.8 z m 0,-10.3 c 0,1.5 1.2,2.7 2.7,2.7 h 0.8 c 5.1,0 6.5,-3 6.5,-8.9 v -2.4 c 0,-5 -1.3,-8 -6.7,-8 h -0.5 c -1.5,0 -2.7,1.2 -2.7,2.7 v 13.9 z"
   id="path35" />
		<path
   d="m 212,31.7 h 0.3 c 1.5,0 2.7,1.2 2.7,2.7 V 58 h 0.1 c 2.1,-4.8 7.3,-16.6 10.8,-24.8 0.4,-1 1.4,-1.6 2.5,-1.6 h 0.3 c 2,0 3.3,2.1 2.4,3.8 l -8,16.9 c -0.3,0.6 -0.3,1.4 -0.1,2 l 9.6,28.4 c 0.6,1.7 -0.7,3.6 -2.6,3.6 h -0.5 c -1.2,0 -2.2,-0.7 -2.6,-1.9 l -6.1,-18.8 c -0.8,-2.3 -3.9,-2.5 -5,-0.4 l -0.6,1.2 c -0.2,0.4 -0.3,0.8 -0.3,1.2 v 15.9 c 0,1.5 -1.2,2.7 -2.7,2.7 H 212 c -1.5,0 -2.7,-1.2 -2.7,-2.7 V 34.3 c 0,-1.4 1.2,-2.6 2.7,-2.6 z"
   id="path37" />
		<path
   d="M 237,83.7 V 34.3 c 0,-1.5 1.2,-2.7 2.7,-2.7 h 2.1 c 1.2,0 2.3,0.8 2.6,2 3.2,11.4 9.9,37.1 10.7,41.3 h 0.1 c -0.3,-7.4 -0.4,-15.1 -0.4,-24 V 34.3 c 0,-1.5 1.2,-2.7 2.7,-2.7 v 0 c 1.5,0 2.7,1.2 2.7,2.7 v 49.3 c 0,1.5 -1.2,2.7 -2.7,2.7 h -1.9 c -1.2,0 -2.3,-0.8 -2.6,-2 -3.2,-11.7 -10.1,-38.7 -11,-42.8 h -0.1 c 0.4,6.6 0.5,15.3 0.5,25.2 v 16.8 c 0,1.5 -1.2,2.7 -2.7,2.7 v 0 c -1.5,0.2 -2.7,-1 -2.7,-2.5 z"
   id="path39" />
		<path
   d="M 270.3,37 H 267 c -1.5,0 -2.7,-1.2 -2.7,-2.7 v 0 c 0,-1.5 1.2,-2.7 2.7,-2.7 h 17.7 c 1.5,0 2.7,1.2 2.7,2.7 v 0 c 0,1.5 -1.2,2.7 -2.7,2.7 h -3.3 c -1.5,0 -2.7,1.2 -2.7,2.7 v 43.9 c 0,1.5 -1.2,2.7 -2.7,2.7 h -0.3 c -1.5,0 -2.7,-1.2 -2.7,-2.7 V 39.7 c 0,-1.4 -1.2,-2.7 -2.7,-2.7 z"
   id="path41" />
	</g>
	<g
   class="st2"
   id="g59">
		<path
   class="st0"
   d="m 36.6,25.1 v 69.6 c 0,2.1 -1.7,3.8 -3.8,3.8 h -0.7 c -2.1,0 -3.8,-1.7 -3.8,-3.8 V 25.1 c 0,-2.1 1.7,-3.8 3.8,-3.8 h 0.7 c 2.1,0 3.8,1.7 3.8,3.8 z"
   id="path45" />
		<path
   class="st0"
   d="M 71.1,94.7 V 25.1 c 0,-2.1 1.7,-3.8 3.8,-3.8 h 3.2 c 1.7,0 3.2,1.1 3.6,2.7 4.6,16.1 14.2,52.4 15.4,58.3 h 0.2 C 96.8,71.9 96.7,61.1 96.7,48.5 V 25.1 c 0,-2.1 1.7,-3.8 3.8,-3.8 h 0.2 c 2.1,0 3.8,1.7 3.8,3.8 v 69.6 c 0,2.1 -1.7,3.8 -3.8,3.8 h -2.8 c -1.7,0 -3.2,-1.1 -3.6,-2.8 C 89.7,79.2 79.8,41.2 78.5,35.4 h -0.1 c 0.5,9.3 0.7,21.6 0.7,35.5 v 23.8 c 0,2.1 -1.7,3.8 -3.8,3.8 h -0.2 c -2.3,0 -4,-1.7 -4,-3.8 z"
   id="path47" />
		<path
   d="M 147.3,95.1 135.2,25.5 c -0.4,-2.3 1.4,-4.4 3.7,-4.4 h 1.1 c 1.9,0 3.5,1.4 3.7,3.2 l 4.7,31.4 c 1.6,10.8 3.8,24 4.5,32 h 0.2 c 0.6,-7.7 3,-21 4.5,-31.7 0,0 0.7,-5.7 2.3,-15.3 1.5,-9 1.9,-10.6 2.3,-11.6 1.4,-4.6 2.4,-8.1 6.4,-15 2.8,-4.8 5.2,-7.1 7.6,-10 0.7,-0.9 4.7,-5 9.2,-8.6 7.4,-6 13.1,-7.2 22.9,-10.4 8.4,-2.7 33.4,-5 45,-5.7 8.6,-0.5 14.9,-0.7 20.1,-1 3.4,-0.2 7,-0.2 10.1,-0.2 0.9,0 1.1,1.4 0.2,1.6 -3.4,0.8 -7.5,1.7 -11.4,2.2 -16.9,2 -46.5,4.9 -58,8.1 -11.2,3.2 -18.7,6.1 -23.4,10 -4.7,3.8 -7.8,7.1 -12.2,12.8 -4.1,5.3 -7.5,13.9 -9.4,23.1 -1.9,9.2 -7.4,41.7 -10.5,59.1 -0.3,1.8 -1.9,3.1 -3.7,3.1 h -3.9 c -2.1,0.1 -3.6,-1.3 -3.9,-3.1 z"
   id="path49" />
		<path
   class="st0"
   d="M 222.8,61.1 H 213 c -2.1,0 -3.8,1.7 -3.8,3.8 v 22.3 c 0,2.1 1.7,3.8 3.8,3.8 h 11.5 c 2.3,0 4.1,2 3.7,4.3 v 0 c -0.3,1.9 -1.9,3.2 -3.7,3.2 h -19.7 c -2.1,0 -3.8,-1.7 -3.8,-3.8 V 25.1 c 0,-2.1 1.7,-3.8 3.8,-3.8 h 19 c 2.1,0 3.8,1.7 3.8,3.8 v 0.1 c 0,2.1 -1.7,3.8 -3.8,3.8 h -10.7 c -2.1,0 -3.8,1.7 -3.8,3.8 v 17.1 c 0,2.1 1.7,3.8 3.8,3.8 h 9.8 c 2.1,0 3.8,1.7 3.8,3.8 v 0 c -0.1,1.9 -1.8,3.6 -3.9,3.6 z"
   id="path51" />
		<path
   class="st0"
   d="M 258.6,94.7 V 25.1 c 0,-2.1 1.7,-3.8 3.8,-3.8 h 3.2 c 1.7,0 3.2,1.1 3.6,2.7 4.6,16.1 14.2,52.4 15.4,58.3 h 0.2 C 284.3,71.9 284.2,61.1 284.2,48.5 V 25.1 c 0,-2.1 1.7,-3.8 3.8,-3.8 h 0.2 c 2.1,0 3.8,1.7 3.8,3.8 v 69.6 c 0,2.1 -1.7,3.8 -3.8,3.8 h -2.8 c -1.7,0 -3.2,-1.1 -3.6,-2.8 C 277.2,79.2 267.3,41.2 266,35.4 h -0.1 c 0.5,9.3 0.7,21.6 0.7,35.5 v 23.8 c 0,2.1 -1.7,3.8 -3.8,3.8 h -0.2 c -2.3,0 -4,-1.7 -4,-3.8 z"
   id="path53" />
		<path
   class="st0"
   d="m 334.6,25.1 v 69.6 c 0,2.1 -1.7,3.8 -3.8,3.8 h -0.7 c -2.1,0 -3.8,-1.7 -3.8,-3.8 V 25.1 c 0,-2.1 1.7,-3.8 3.8,-3.8 h 0.7 c 2.1,0 3.8,1.7 3.8,3.8 z"
   id="path55" />
		<path
   class="st0"
   d="m 400.8,40.3 v 38.9 c 0,13.6 -5.6,20.3 -17.1,20.3 -11.9,0 -16.3,-7.6 -16.3,-20.2 v -39 c 0,-13.1 6,-20 16.9,-20 11.3,0 16.5,7.8 16.5,20 z m -25.1,-0.4 v 40 c 0,8.7 3.2,12.1 8.3,12.1 5.5,0 8.3,-3.3 8.3,-12.5 V 39.9 c 0,-8.2 -2.8,-12.1 -8.4,-12.1 -5.5,0 -8.2,3.7 -8.2,12.1 z"
   id="path57" />
	</g>
</g>
</svg>
