<?xml version="1.0" encoding="UTF-8" standalone="no"?>
<svg
   viewBox="0 0 147.66 147.66"
   version="1.1"
   id="svg18"
   sodipodi:docname="favicon.svg"
   inkscape:version="1.1 (c68e22c387, 2021-05-23)"
   xmlns:inkscape="http://www.inkscape.org/namespaces/inkscape"
   xmlns:sodipodi="http://sodipodi.sourceforge.net/DTD/sodipodi-0.dtd"
   xmlns="http://www.w3.org/2000/svg"
   xmlns:svg="http://www.w3.org/2000/svg">
  <sodipodi:namedview
     id="namedview20"
     pagecolor="#505050"
     bordercolor="#eeeeee"
     borderopacity="1"
     inkscape:pageshadow="0"
     inkscape:pageopacity="0"
     inkscape:pagecheckerboard="0"
     showgrid="false"
     inkscape:zoom="3.9076255"
     inkscape:cx="65.129066"
     inkscape:cy="69.223624"
     inkscape:window-width="1920"
     inkscape:window-height="1017"
     inkscape:window-x="-8"
     inkscape:window-y="238"
     inkscape:window-maximized="1"
     inkscape:current-layer="svg18" />
  <defs
     id="defs4">
    <style
       id="style2">.cls-1{fill:#231f20;}.cls-2{fill:#9e0e37;}.cls-3{fill:none;stroke:#9e0e37;stroke-miterlimit:10;stroke-width:6px;}</style>
  </defs>
  <g
     id="Layer_3"
     data-name="Layer 3"
     style="fill:#ffffff">
    <circle
       class="cls-3"
       cx="74.9"
       cy="61.02"
       r="70.83"
       transform="translate(-22.29 83.64) rotate(-45)"
       id="circle15"
       style="fill:#ffffff" />
  </g>
  <g
     id="Layer_1"
     data-name="Layer 1">
    <path
       class="cls-1"
       d="M22.87,62.72V77.61a2,2,0,0,1-2,2h-.34a2,2,0,0,1-2-2V41.21a2,2,0,0,1,2-2h5.07c6.07,0,9.05,2.62,9.05,9.29v1.84c0,3.6-.83,5.8-2,7.11a2,2,0,0,0,0,2.7c1.15,1.25,1.69,3.32,1.69,7,0,2.7,0,7.26.17,10.33a2,2,0,0,1-2,2.12h-.25a2,2,0,0,1-2-1.82c-.25-3.11-.19-8-.19-10.31,0-5.23-.74-6.72-4.74-6.72h-.52A2,2,0,0,0,22.87,62.72Zm0-7.6a2,2,0,0,0,2,2h.66c3.84,0,4.84-2.22,4.84-6.53v-1.8c0-3.68-1-5.89-5.05-5.89h-.45a2,2,0,0,0-2,2Z"
       transform="translate(-1.07 12.8)"
       id="path6" />
    <path
       class="cls-2"
       d="M53.81,39.08h.29a2,2,0,0,1,2,2V58.54h.06C57.71,55,57.2,54,65.76,39,76.59,20,114.35-14.37,137,21.14c4.66,7.31.42,13.21-1.56,9.17C121.8,2.44,84.64,14.77,67.59,42.73c-4,6.51-5.46,10.56-5.54,13.13s7.23,21,7.23,21a2,2,0,0,1-1.86,2.62h-.48a2,2,0,0,1-1.87-1.35l-4.66-14a2,2,0,0,0-3.63-.26l-.49,1a2,2,0,0,0-.21.89V77.46a2,2,0,0,1-2,2h-.29a2,2,0,0,1-2-2V41.05A2,2,0,0,1,53.81,39.08Z"
       transform="translate(-1.07 12.8)"
       id="path8" />
    <path
       class="cls-1"
       d="M84.54,77.61V41.21a2,2,0,0,1,2-2h1.66a2,2,0,0,1,1.9,1.44c2.4,8.43,7.42,27.38,8,30.48h.09c-.24-5.42-.3-11.1-.3-17.68V41.21a2,2,0,0,1,2-2h.1a2,2,0,0,1,2,2v36.4a2,2,0,0,1-2,2H98.49a2,2,0,0,1-1.9-1.45C94.2,69.52,89,49.62,88.3,46.59h-.06c.27,4.86.37,11.31.37,18.59V77.61a2,2,0,0,1-2,2h-.13A2,2,0,0,1,84.54,77.61Z"
       transform="translate(-1.07 12.8)"
       id="path10" />
    <path
       class="cls-1"
       d="M121.69,43.21h-2.58a2,2,0,0,1-2-2v0a2,2,0,0,1,2-2h13.37a2,2,0,0,1,2,2v0a2,2,0,0,1-2,2h-2.54a2,2,0,0,0-2,2V77.61a2,2,0,0,1-2,2h-.35a2,2,0,0,1-2-2V45.18A2,2,0,0,0,121.69,43.21Z"
       transform="translate(-1.07 12.8)"
       id="path12" />
  </g>
</svg>
