<?xml version="1.0" encoding="UTF-8" standalone="no"?>
<svg
   xmlns:dc="http://purl.org/dc/elements/1.1/"
   xmlns:cc="http://creativecommons.org/ns#"
   xmlns:rdf="http://www.w3.org/1999/02/22-rdf-syntax-ns#"
   xmlns:svg="http://www.w3.org/2000/svg"
   xmlns="http://www.w3.org/2000/svg"
   xmlns:sodipodi="http://sodipodi.sourceforge.net/DTD/sodipodi-0.dtd"
   xmlns:inkscape="http://www.inkscape.org/namespaces/inkscape"
   width="381mm"
   height="143.89922mm"
   viewBox="0 0 381 143.89921"
   version="1.1"
   id="svg8"
   inkscape:version="1.0.1 (3bc2e813f5, 2020-09-07)"
   sodipodi:docname="logo_igus.svg">
  <defs
     id="defs2" />
  <sodipodi:namedview
     id="base"
     pagecolor="#ffffff"
     bordercolor="#666666"
     borderopacity="1.0"
     inkscape:pageopacity="0.0"
     inkscape:pageshadow="2"
     inkscape:zoom="0.41089041"
     inkscape:cx="696.89057"
     inkscape:cy="814.19743"
     inkscape:document-units="mm"
     inkscape:current-layer="layer1"
     inkscape:document-rotation="0"
     showgrid="false"
     fit-margin-top="0"
     fit-margin-left="0"
     fit-margin-right="0"
     fit-margin-bottom="0"
     inkscape:window-width="1920"
     inkscape:window-height="1009"
     inkscape:window-x="-8"
     inkscape:window-y="-8"
     inkscape:window-maximized="1" />
  <metadata
     id="metadata5">
    <rdf:RDF>
      <cc:Work
         rdf:about="">
        <dc:format>image/svg+xml</dc:format>
        <dc:type
           rdf:resource="http://purl.org/dc/dcmitype/StillImage" />
        <dc:title></dc:title>
      </cc:Work>
    </rdf:RDF>
  </metadata>
  <g
     inkscape:label="Warstwa 1"
     inkscape:groupmode="layer"
     id="layer1"
     transform="translate(93.855415,60.509182)">
    <path
       style="fill:#ffffff;stroke-width:0.264583"
       d="m -31.678332,83.243718 c -4.812382,-0.78842 -8.852527,-2.1419 -12.567708,-4.21028 -2.878175,-1.60239 -4.279239,-2.5221 -5.598774,-3.67528 -0.16891,-0.14761 -0.810651,-0.6851 -1.426093,-1.19443 -5.578047,-4.61624 -10.223604,-12.0666 -12.373256,-19.84375 -0.605036,-2.18893 -1.240208,-5.97035 -1.499939,-8.92968 l -0.168354,-1.91823 h 5.680811 5.68081 l 0.186978,2.3151 c 0.621636,7.69692 4.639996,15.54314 10.382454,20.27271 1.082858,0.89186 2.105208,1.66686 2.27189,1.72223 0.166679,0.0554 0.482854,0.25634 0.702606,0.44659 0.871286,0.75433 4.762696,2.49423 7.141075,3.19287 2.289638,0.67257 2.890642,0.73834 6.746875,0.73834 3.861038,0 4.454382,-0.0651 6.746875,-0.74055 8.485119,-2.49992 15.4591679,-8.99308 18.5633205,-17.28331 1.65898244,-4.43063 1.84530731,-5.75083 1.99741362,-14.1526 l 0.14219238,-7.85425 -1.29277533,1.24607 c -1.32941747,1.28139 -4.69051477,3.8875 -6.59582437,5.11423 -3.7778428,2.43236 -9.2753288,4.41616 -14.1632548,5.11088 -13.290356,1.88897 -26.510935,-3.36665 -34.796132,-13.83261 -4.868693,-6.15019 -7.389328,-11.84246 -8.723214,-19.69935 -0.410612,-2.4185897 -0.477316,-2.5796797 -1.068176,-2.5796797 h -0.630216 v 18.2562397 18.25625 h -5.688542 -5.688542 V 25.744978 7.4887383 h -8.069791 -8.069792 v -1.32292 -1.32292 h 8.069792 8.069791 v -20.9020803 -20.90208 h 5.688542 5.688542 v 20.90208 c 0,20.2154603 0.01619,20.9020803 0.493059,20.9020803 0.438774,0 0.513781,-0.31315 0.68127,-2.84427 0.491453,-7.42691 2.629995,-14.5717903 6.038453,-20.1744803 0.746959,-1.22782 3.33588,-4.78369 3.87196,-5.31811 0.233548,-0.23282 0.793689,-0.82814 1.244756,-1.32292 9.622917,-10.5554 24.96874,-14.61541 38.727992,-10.24619 6.1093372,1.94001 10.6634646,4.73737 15.78554125,9.69623 0.30478413,0.29507 0.36113508,-0.58223 0.36113508,-5.6224 v -5.97202 H 6.4216683 11.977918 v 20.90208 20.9020803 h 0.661459 0.661458 v -20.9070503 -20.90705 l 6.019271,0.0711 6.019271,0.0711 0.06775,20.83593 0.06775,20.8359403 h 27.118186 27.118189 v -20.9020503 -20.90208 h 5.423958 5.423958 v 20.90208 20.9020803 l 7.871354,-0.0241 7.871358,-0.0241 -1.46732,-0.46185 c -5.908155,-1.85964 -9.364336,-5.27795996 -11.388589,-11.26384 -0.56307,-1.66504 -0.626904,-2.31968 -0.632082,-6.4822903 -0.0051,-4.08421 0.06578,-4.86421 0.600903,-6.61458 0.793615,-2.59587 2.208284,-5.45305 3.361619,-6.7894 0.145777,-0.16891 0.677759,-0.80452 1.182182,-1.41247 2.237487,-2.69669 7.028867,-5.55336 11.650577,-6.9462 4.22434,-1.27308 7.11276,-1.65298 12.56771,-1.65298 5.29186,0 7.28858,0.266 11.90625,1.58616 6.64462,1.89965 12.43604,5.52017 15.66165,9.79092 1.85924,2.46166 3.22912,6.4476 3.25081,9.45885 l 0.005,0.72761 h -5.68855 c -5.38883,0 -5.68854,-0.0262 -5.68854,-0.49686 0,-1.08 -0.92678,-2.60133 -2.61028,-4.28483 -2.05229,-2.05229 -5.30912,-3.7746 -9.03139,-4.77606 -1.98862,-0.53503 -2.86149,-0.60518 -7.54062,-0.606 -5.5851,-0.001 -6.86405,0.18735 -10.18646,1.50001 -2.33821,0.92381 -3.52543,1.68646 -5.14678,3.30619 -1.68872,1.68703 -2.26431,2.65567 -2.92159,4.91663 -1.06016,3.64682 0.66062,7.4840103 4.02635,8.9784103 2.2049,0.97899 4.49304,1.23221 13.69931,1.51601 14.15197,0.43628 21.10411,1.94791 26.87956,5.84454004 1.472,0.99313996 4.20899,3.59288996 4.20899,3.99794996 0,0.11679 4.52437,0.21234 10.05416,0.21234 h 10.05417 v 1.32292 1.32292 h -9.12813 c -6.19693,0 -9.12812,0.0892 -9.12812,0.27772 0,0.15274 0.17139,0.60916 0.38087,1.01425 0.7204,1.3930897 1.26489,4.4028897 1.40239,7.7520797 0.51525,12.54996 -5.92333,21.00601 -19.11347,25.10249 -4.10811,1.27587 -6.92062,1.64609 -13.43066,1.76796 -5.7045,0.10678 -6.53787,0.0647 -8.99584,-0.45402 -7.42372,-1.56673 -12.9062,-4.27568 -17.060086,-8.42956 -4.086132,-4.08613 -6.325113,-8.88648 -6.838498,-14.66165 l -0.182279,-2.05053 h 5.688288 5.688285 l 0.14124,1.55756 c 0.2636,2.9071 2.40773,6.44703 5.16659,8.52999 5.06946,3.82748 12.00388,5.17529 20.95942,4.07379 8.93539,-1.09902 14.19877,-4.43452 16.15528,-10.23791 0.47985,-1.42332 0.54908,-2.13083 0.4616,-4.71718 -0.0901,-2.66263 -0.19095,-3.21224 -0.80763,-4.39998 -0.92826,-1.78786 -2.85768,-3.2940897 -5.52362,-4.3121197 l -2.12876,-0.81289 H 113.6876 90.559168 v 18.2562397 18.25625 h -5.688541 -5.688542 v -5.84834 -5.84835 l -1.389062,1.32407 c -5.670931,5.40557 -12.830461,8.86762 -20.631582,9.97657 -16.413342,2.33321 -32.19319,-6.30609 -39.629381,-21.69665 -2.054548,-4.25227 -3.402442,-8.73407 -3.839396,-12.7661497 -0.173558,-1.60156 -0.203057,-1.65364 -0.936484,-1.65364 h -0.757283 l -0.09797,20.9682197 c -0.09425,20.1718 -0.118988,21.05662 -0.651351,23.29519 -2.0831704,8.75967 -5.5445872,15.09054 -11.31327644,20.69179 -1.49870846,1.45521 -2.88513836,2.7649 -3.08095386,2.91042 -0.1958155,0.14552 -0.8303048,0.62177 -1.4099752,1.05833 -1.2355988,0.93055 -1.270164,0.95192 -4.1432427,2.56105 -5.6081798,3.14098 -11.0483518,4.47301 -18.0289038,4.41438 -2.359554,-0.0198 -4.587754,-0.0848 -4.951556,-0.1444 z m 9.544521,-50.7776 c 3.118861,-0.5285 5.085366,-1.16106 7.785688,-2.50442 6.4508615,-3.20917 11.5556476,-9.17054 14.14611692,-16.51984 0.55090218,-1.56295 1.33200778,-4.8313397 1.33200778,-5.5735497 0,-0.32725 -3.7413089,-0.37957 -27.1376217,-0.37957 -25.720924,0 -27.1305,0.0242 -27.001227,0.46302 0.07502,0.25466 0.262081,1.17739 0.415695,2.0505197 0.153614,0.87312 0.583607,2.42093 0.955543,3.43958 0.371932,1.01865 0.749284,2.08615 0.83856,2.37224 0.08927,0.28608 0.63615,1.35765 1.215284,2.38125 3.049905,5.39064 7.138794,9.36205 12.216892,11.86588 2.259123,1.11389 3.631297,1.5837 6.217708,2.12884 3.858392,0.81323 5.541158,0.86476 9.015354,0.27605 z m 80.281521,-0.33505 c 8.145243,-1.87092 15.314451,-7.90367 19.081329,-16.05658 0.778754,-1.68551 2.482213,-7.4154197 2.482213,-8.3493997 0,-0.13722 -11.375472,-0.23635 -27.119792,-0.23635 H 25.471668 v 0.61162 c 0,0.79146 0.93417,4.4015997 1.621804,6.2675397 2.619531,7.10829 8.887446,13.69992 15.640211,16.44798 1.673005,0.68083 4.807437,1.50654 7.211944,1.89985 1.448593,0.23694 6.054484,-0.0914 8.202083,-0.58466 z M 1.394585,2.7772683 c 0,-1.1361 -0.2309336,-3.30898996 -0.51318848,-4.82865 C -0.85344465,-11.391802 -6.6457003,-19.121152 -14.873332,-23.074932 c -4.123759,-1.98167 -5.915893,-2.36254 -11.116458,-2.36254 -3.933978,0 -4.763299,0.0775 -6.614583,0.61835 -6.634557,1.93818 -12.183004,6.16133 -16.214067,12.34117 -0.821824,1.25991 -2.467501,4.9508003 -3.068002,6.8808703 -0.762685,2.45133 -1.487723,6.8132 -1.487723,8.9502 v 1.48978 H -25.98979 1.394585 Z M 189.77792,16.352278 v -53.31354 h 5.94807 5.94804 l 0.0712,5.80358 0.0712,5.80359 1.5875,-1.44136 c 2.87308,-2.60859 8.24717,-5.92485 11.56279,-7.1352 5.96469,-2.17737 9.6084,-2.86596 15.16013,-2.86499 8.85428,0.002 16.11992,2.28952 23.63848,7.44385 2.52838,1.73333 8.08596,7.43365 9.8656,10.11902 4.16483,6.28449 6.41805,13.0226103 6.98913,20.9006703 0.20468,2.82344 -0.16264,6.95506 -0.94298,10.6066197 -3.50022,16.37919 -17.00355,28.98083 -33.57703,31.33496 -8.80075,1.25008 -18.32125,-0.46198 -25.55237,-4.59504 -2.67584,-1.52942 -5.98099,-3.88633 -7.60677,-5.42442 l -1.25677,-1.18899 v 18.63239 18.6324 h -5.95313 -5.95312 z m 45.91116,15.87152 c 3.24895,-0.66162 6.6453,-1.95118 9.25446,-3.51382 4.50353,-2.69719 8.35618,-6.70246 10.8245,-11.25329 1.5031,-2.77123 2.17771,-4.63896 2.97919,-8.2481597 1.07815,-4.85495 0.61711,-10.71831 -1.23116,-15.65826 -3.51465,-9.3937703 -11.37746,-16.2145103 -21.32971,-18.5028603 -3.09909,-0.71258 -9.21713,-0.66043 -12.40948,0.10578 -9.76466,2.34366 -17.37966,9.05384 -21.02856,18.5299503 -1.44219,3.74534 -2.10063,8.95674 -1.61705,12.79866 0.55814,4.4341197 1.57811,7.5595697 3.72647,11.4189097 4.54829,8.17062 12.91862,13.62416 22.75559,14.82601 1.65608,0.20233 5.91492,-0.0629 8.07575,-0.50292 z m -58.50162,11.25886 c -3.76643,-1.67646 -4.31467,-7.56951 -0.92276,-9.91853 1.47587,-1.0221 3.3924,-1.36573 5.23822,-0.93922 1.23621,0.28565 1.76019,0.5888 2.74293,1.58698 1.54908,1.57337 1.98424,3.63311 1.29321,6.12101 -0.31491,1.1337 -2.00941,2.87152 -3.23242,3.31506 -1.30453,0.4731 -3.87109,0.39023 -5.11918,-0.1653 z M 275.23833,-8.2539717 V -60.509182 h 5.95313 5.95312 V -8.2539717 44.001228 h -5.95312 -5.95313 z M 156.83729,-15.765502 c -1.38403,-0.63878 -2.09998,-1.4629 -2.61918,-3.01491 -0.49635,-1.4837 -0.52046,-2.07842 -0.13986,-3.44906 1.14783,-4.13357 7.02666,-4.93435 9.51925,-1.29665 0.90611,1.32237 0.91446,4.22398 0.0167,5.79091 -1.25404,2.18872 -4.35162,3.08903 -6.77688,1.96971 z m 4.14195,-1.19214 c 0.59682,-0.41802 0.59751,-0.42446 0.0455,-0.42446 -0.38297,0 -0.82929,-0.41894 -1.40937,-1.32291 -0.4669,-0.72761 -0.95557,-1.32292 -1.08592,-1.32292 -0.13035,0 -0.237,0.59531 -0.237,1.32292 0,1.23472 -0.0441,1.32291 -0.66146,1.32291 h -0.66145 v -3.04271 -3.0427 l 1.78593,0.004 c 0.98227,0.002 1.92732,0.094 2.10012,0.20383 0.93616,0.59526 0.90176,2.96712 -0.043,2.96712 -0.57678,0 -0.50239,0.39096 0.30715,1.61426 l 0.71056,1.07373 0.45463,-0.60272 c 1.02646,-1.3608 0.80694,-3.97904 -0.44299,-5.28369 -1.84385,-1.92456 -4.85768,-1.51363 -6.06827,0.8274 -0.52887,1.02273 -0.49364,3.09202 0.0718,4.21912 0.93236,1.85834 3.52942,2.61048 5.13372,1.48678 z m -0.70236,-4.79008 c 0,-0.4205 -0.20376,-0.54603 -0.99219,-0.61129 -0.91502,-0.0757 -0.99219,-0.0282 -0.99219,0.61129 0,0.63947 0.0772,0.68701 0.99219,0.61128 0.78843,-0.0653 0.99219,-0.19079 0.99219,-0.61128 z M -73.600433,-44.03279 c -1.040985,-0.264839 -2.542303,-1.428476 -3.21225,-2.48974 -0.965207,-1.528988 -1.017038,-4.113078 -0.1147,-5.718571 1.072092,-1.90753 3.586539,-3.190629 5.616466,-2.866031 2.117598,0.338618 3.558148,1.428755 4.431366,3.353441 1.935424,4.265924 -2.096235,8.897465 -6.720882,7.720901 z"
       id="path24" />
  </g>
</svg>
