<?xml version="1.0" encoding="UTF-8" standalone="no"?>
<svg
   xmlns:dc="http://purl.org/dc/elements/1.1/"
   xmlns:cc="http://creativecommons.org/ns#"
   xmlns:rdf="http://www.w3.org/1999/02/22-rdf-syntax-ns#"
   xmlns:svg="http://www.w3.org/2000/svg"
   xmlns="http://www.w3.org/2000/svg"
   xmlns:sodipodi="http://sodipodi.sourceforge.net/DTD/sodipodi-0.dtd"
   xmlns:inkscape="http://www.inkscape.org/namespaces/inkscape"
   width="248.70833mm"
   height="35.330822mm"
   viewBox="0 0 248.70833 35.330823"
   version="1.1"
   id="svg8"
   inkscape:version="1.0.1 (3bc2e813f5, 2020-09-07)"
   sodipodi:docname="logo_Techno_system.svg">
  <defs
     id="defs2" />
  <sodipodi:namedview
     id="base"
     pagecolor="#ffffff"
     bordercolor="#666666"
     borderopacity="1.0"
     inkscape:pageopacity="0.0"
     inkscape:pageshadow="2"
     inkscape:zoom="0.175"
     inkscape:cx="1200.8588"
     inkscape:cy="1413.8037"
     inkscape:document-units="mm"
     inkscape:current-layer="layer1"
     inkscape:document-rotation="0"
     showgrid="false"
     fit-margin-top="0"
     fit-margin-left="0"
     fit-margin-right="0"
     fit-margin-bottom="0"
     inkscape:window-width="1460"
     inkscape:window-height="1032"
     inkscape:window-x="130"
     inkscape:window-y="0"
     inkscape:window-maximized="0" />
  <metadata
     id="metadata5">
    <rdf:RDF>
      <cc:Work
         rdf:about="">
        <dc:format>image/svg+xml</dc:format>
        <dc:type
           rdf:resource="http://purl.org/dc/dcmitype/StillImage" />
        <dc:title />
      </cc:Work>
    </rdf:RDF>
  </metadata>
  <g
     inkscape:label="Warstwa 1"
     inkscape:groupmode="layer"
     id="layer1"
     transform="translate(-120.38429,1.9706076)">
    <path
       style="fill:#ffffff;stroke-width:0.264583"
       d="m 278.27439,33.201185 c -0.31061,-0.183195 -0.46302,-0.600929 -0.46302,-1.269095 0,-0.865447 0.14953,-1.108048 1.14069,-1.850697 0.62739,-0.470077 1.312,-1.107157 1.52136,-1.415732 0.20936,-0.308579 0.5769,-0.767414 0.81674,-1.019633 0.72699,-0.764498 0.82033,-1.862304 0.24862,-2.923969 -0.28323,-0.525963 -0.59617,-1.389167 -0.69542,-1.918229 -0.0993,-0.529063 -0.28169,-0.961932 -0.4054,-0.961932 -0.12372,0 -0.3583,-0.495253 -0.52129,-1.100561 -0.163,-0.605308 -0.45355,-1.349448 -0.64569,-1.653645 -0.19213,-0.304198 -0.4338,-0.969805 -0.53704,-1.479128 -0.10324,-0.509323 -0.3398,-1.104635 -0.52569,-1.322917 -0.18589,-0.218281 -0.42528,-0.806849 -0.53198,-1.307928 -0.1067,-0.501079 -0.34721,-1.064267 -0.53447,-1.251527 -0.18726,-0.187261 -0.42018,-0.81223 -0.5176,-1.38882 -0.0974,-0.57659 -0.3464,-1.18884 -0.5533,-1.360557 -0.20691,-0.171716 -0.3762,-0.507755 -0.3762,-0.746754 0,-0.2389976 -0.23812,-0.8788306 -0.52916,-1.4218516 -0.29104,-0.543021 -0.52917,-1.350677 -0.52917,-1.794792 0,-0.659235 0.15672,-0.873377 0.85364,-1.166409 0.75454,-0.31726 0.96538,-0.30192 1.8162,0.132135 0.79141,0.403745 0.99204,0.675438 1.12837,1.527963 0.0912,0.570295 0.33061,1.173674 0.53203,1.340841 0.20143,0.167167 0.44391,0.789741 0.53885,1.3834966 0.0949,0.593755 0.33144,1.238361 0.52553,1.432456 0.1941,0.194096 0.42787,0.821678 0.51948,1.394629 0.0916,0.57295 0.34624,1.190832 0.56582,1.37307 0.21959,0.182238 0.39925,0.586417 0.39925,0.898176 0,0.311759 0.2297,0.995404 0.51044,1.519213 0.28075,0.523808 0.59086,1.381006 0.68914,1.904884 0.0983,0.523878 0.34483,1.090389 0.54789,1.258912 0.20305,0.168524 0.36919,0.649016 0.36919,1.06776 0,0.418745 0.11907,0.761354 0.26459,0.761354 0.14552,0 0.26458,-0.342609 0.26458,-0.761354 0,-0.418744 0.16614,-0.899236 0.3692,-1.06776 0.20306,-0.168523 0.44961,-0.735034 0.54789,-1.258912 0.0983,-0.523878 0.40839,-1.381076 0.68913,-1.904884 0.28075,-0.523809 0.51045,-1.182892 0.51045,-1.464631 0,-0.281738 0.18368,-0.715218 0.40818,-0.963289 0.2245,-0.248072 0.47874,-0.91229 0.56496,-1.476042 0.0862,-0.563752 0.31785,-1.21141 0.51472,-1.43924 0.19686,-0.22783 0.43743,-0.823142 0.53459,-1.322917 0.0972,-0.4997736 0.39624,-1.3236356 0.66461,-1.8308036 0.26836,-0.507167 0.48794,-1.129188 0.48794,-1.382268 0,-0.533163 1.27157,-1.267483 2.19481,-1.267483 1.22053,0 1.99685,1.647287 1.11948,2.375439 -0.21443,0.177962 -0.46763,0.758087 -0.56268,1.289168 -0.095,0.531081 -0.32307,1.1441946 -0.50672,1.3624756 -0.18365,0.218282 -0.41995,0.813594 -0.5251,1.322917 -0.10515,0.509323 -0.34964,1.106394 -0.5433,1.326825 -0.19366,0.220432 -0.4693,0.922364 -0.61253,1.559849 -0.14324,0.637486 -0.3733,1.231039 -0.51125,1.319008 -0.13795,0.08797 -0.33912,0.566742 -0.44706,1.063941 -0.10793,0.497199 -0.4201,1.271105 -0.69371,1.719791 -0.2736,0.448687 -0.49791,1.146953 -0.49845,1.551703 -5.3e-4,0.404749 -0.17387,0.802248 -0.38517,0.88333 -0.2113,0.08108 -0.46236,0.668822 -0.55793,1.306088 -0.0956,0.637265 -0.33625,1.293527 -0.53486,1.458359 -0.19861,0.164833 -0.43887,0.734216 -0.53392,1.265296 -0.095,0.531082 -0.32223,1.144196 -0.50487,1.362477 -0.18264,0.218281 -0.4176,0.677042 -0.52215,1.019471 -0.18692,0.612259 -1.02163,1.976435 -1.92619,3.148002 -0.65722,0.851215 -2.52529,2.102102 -3.40991,2.283323 -0.41477,0.08497 -0.96248,0.0316 -1.21714,-0.118592 z m -20.07077,-6.69553 c -0.37952,-0.198035 -1.357,-0.443397 -2.17217,-0.545245 -1.3048,-0.163023 -1.54723,-0.290494 -2.02611,-1.065337 -0.66242,-1.071814 -0.39427,-2.094076 0.67737,-2.582348 0.57955,-0.264059 0.83217,-0.236486 1.52667,0.166624 1.01938,0.59169 5.72864,1.01647 8.63741,0.779102 2.37817,-0.194069 4.14612,-1.105818 4.4027,-2.270516 0.0874,-0.396918 0.32323,-0.857981 0.52397,-1.024584 0.46447,-0.385474 0.48975,-3.019906 0.0343,-3.571091 -0.18191,-0.22012 -0.6831,-0.780642 -1.11376,-1.245603 l -0.78303,-0.845385 -4.90551,-0.07038 c -4.47339,-0.06418 -5.00812,-0.122444 -6.07026,-0.661459 -1.12183,-0.569307 -2.40713,-1.623932 -2.40713,-1.975119 0,-0.09315 -0.26789,-0.454514 -0.59531,-0.803039 -0.55096,-0.586463 -0.59481,-0.8736056 -0.58851,-3.8535106 0.007,-3.188166 0.0151,-3.231843 0.85485,-4.441349 0.9236,-1.330358 2.20668,-2.421403 3.22704,-2.744068 0.35702,-0.112898 0.80033,-0.356481 0.98515,-0.541296 0.4999,-0.499897 5.5033,-0.760478 9.05534,-0.471608 2.63084,0.213953 3.22919,0.351468 4.19321,0.963701 0.9613,0.610505 1.12448,0.844281 1.12448,1.610976 0,0.741422 -0.12663,0.940984 -0.73073,1.151573 -0.81558,0.284313 -3.39028,0.01737 -4.24513,-0.440139 -0.8526,-0.456292 -6.67797,-0.366028 -7.31169,0.113294 -0.28248,0.213654 -0.8046,0.388461 -1.16029,0.388461 -1.2083,0 -2.95633,2.492396 -2.95633,4.215229 0,1.357113 1.0428,3.3877486 1.85208,3.6065596 0.36381,0.09836 2.62599,0.267017 5.02709,0.374785 4.51385,0.202595 7.04827,0.694428 7.47102,1.449838 0.1255,0.224265 0.4046,0.407755 0.62022,0.407755 0.21562,0 0.46955,0.208359 0.5643,0.463021 0.0947,0.254661 0.41843,0.800486 0.7193,1.212944 0.48404,0.663563 0.5455,1.1206 0.53372,3.96875 -0.0127,3.076243 -0.0458,3.265707 -0.74672,4.27716 -1.2219,1.763249 -3.02863,3.232015 -4.20759,3.420539 -0.57892,0.09258 -1.30211,0.34309 -1.60708,0.556701 -0.7603,0.53253 -7.3924,0.55231 -8.40284,0.02506 z m 40.88317,-0.01323 c -0.44951,-0.195704 -1.43487,-0.440769 -2.18968,-0.544581 -0.75482,-0.103815 -1.5479,-0.364255 -1.7624,-0.578755 -0.45217,-0.452168 -0.51257,-1.745477 -0.11611,-2.486264 0.31405,-0.586806 1.55339,-0.695322 2.06767,-0.181043 0.23313,0.233131 1.42541,0.330729 4.04027,0.330729 3.25781,0 3.74111,-0.05639 3.96867,-0.463021 0.14252,-0.254661 0.41855,-0.463021 0.6134,-0.463021 0.44012,0 0.73903,-1.479615 0.52007,-2.574401 -0.19691,-0.984557 -0.47375,-1.086013 -3.81106,-1.396701 -5.91069,-0.550256 -7.41681,-1.438106 -7.94825,-4.685454 -0.38473,-2.350953 0.0842,-4.4723376 1.21303,-5.4878576 1.90384,-1.712703 1.73736,-1.636389 4.36144,-1.999217 2.9065,-0.401877 7.73549,0.07409 8.49912,0.837719 0.5608,0.560802 0.66811,2.321216 0.17174,2.817579 -0.46229,0.4622956 -1.69046,0.3884066 -2.21194,-0.133076 -0.37103,-0.371027 -0.9933,-0.452773 -3.52463,-0.463021 -2.95156,-0.01195 -3.11824,0.01754 -4.18297,0.74002 -1.68692,1.1446786 -1.83482,2.7646426 -0.37651,4.1240606 0.64228,0.598726 0.93235,0.651413 4.19584,0.762095 2.93417,0.09951 3.59888,0.199568 4.07623,0.613578 0.3137,0.272082 0.6658,0.494687 0.78244,0.494687 0.11664,0 0.49758,0.2855 0.84652,0.634444 0.93218,0.932177 1.82395,4.334613 1.30829,4.991596 -0.1412,0.179897 -0.33552,0.743804 -0.43182,1.253127 -0.24074,1.273131 -2.23935,3.076815 -3.67882,3.320012 -0.58379,0.09863 -1.45669,0.344477 -1.93978,0.546325 -1.10556,0.461931 -3.41914,0.457013 -4.49076,-0.0096 z m 16.82458,-0.354052 c -1.07791,-0.536734 -1.67815,-1.066811 -2.3151,-2.044492 l -0.8599,-1.319891 v -9.673546 c 0,-10.3207746 -0.001,-10.3123656 1.30969,-10.3044946 1.0245,0.0062 1.36241,0.345528 1.52095,1.527543 0.13423,1.000755 0.21403,1.089391 1.10442,1.226768 0.52785,0.08144 1.46524,0.134942 2.08307,0.11889 1.17194,-0.03045 2.35535,0.540804 2.63613,1.272496 0.0875,0.228112 -0.0298,0.72719 -0.26074,1.109063 -0.38647,0.639039 -0.59511,0.704845 -2.62077,0.826605 l -2.20087,0.132292 -0.0713,5.5717346 c -0.0392,3.064454 0.0216,6.21961 0.13513,7.011458 l 0.20639,1.439724 1.90548,0.07754 c 1.75383,0.07137 1.94839,0.13779 2.44456,0.834594 0.70037,0.983582 0.67985,1.322703 -0.1331,2.199427 -0.93745,1.011002 -2.84672,1.008769 -4.88408,-0.0057 z m 14.80103,0.391046 c -0.37241,-0.203724 -1.17188,-0.449522 -1.7766,-0.546222 -1.72586,-0.275976 -4.26607,-2.276273 -4.72436,-3.720217 -0.0962,-0.303239 -0.32526,-0.670863 -0.50892,-0.816943 -0.32732,-0.260348 -0.99542,-3.991236 -0.99514,-5.557266 2.5e-4,-1.433857 0.69541,-5.204665 1.01919,-5.52844 0.17439,-0.17439 0.40832,-0.6045816 0.51985,-0.9559806 0.19449,-0.612791 1.50252,-2.114537 1.84177,-2.114537 0.0899,0 0.48596,-0.236048 0.88025,-0.524551 1.09597,-0.801925 4.32806,-1.193388 6.63726,-0.80389 1.02925,0.173606 2.16107,0.543525 2.51515,0.822044 0.35408,0.278518 0.77677,0.506397 0.93932,0.506397 0.16255,0 0.40872,0.297656 0.54703,0.661458 0.13832,0.363802 0.36872,0.661459 0.512,0.661459 0.14328,0 0.40362,0.477664 0.57854,1.061475 0.17491,0.5838106 0.47735,1.1937026 0.67208,1.3553126 0.49854,0.413757 0.50027,5.599148 0.002,6.012676 -0.23017,0.191025 -2.5888,0.316737 -6.81302,0.363126 l -6.46108,0.07095 0.0902,0.926042 c 0.0496,0.509323 0.25794,1.114011 0.46302,1.34375 0.20507,0.22974 0.37286,0.580413 0.37286,0.779273 0,0.457534 1.31412,1.845727 1.74725,1.845727 0.17892,0 0.37443,0.147333 0.43445,0.327407 0.14395,0.431825 5.75822,0.621541 7.48632,0.252975 0.69274,-0.147748 1.42123,-0.206581 1.61887,-0.13074 0.50442,0.193563 0.71604,1.243397 0.42707,2.118693 -0.20311,0.61524 -0.46214,0.783253 -1.54719,1.00354 -0.71677,0.145521 -1.47165,0.37302 -1.67751,0.505553 -0.66807,0.430112 -4.05796,0.487257 -4.80073,0.08093 z m 5.42147,-12.860276 c 0.08,-0.12939 0.0391,-0.804342 -0.0909,-1.499895 -0.17748,-0.950026 -0.48611,-1.500358 -1.24056,-2.2121416 -0.99127,-0.935207 -1.03374,-0.947501 -3.27317,-0.947501 -1.98717,0 -2.34819,0.07391 -2.90785,0.595312 -0.35145,0.327422 -0.74168,0.5953126 -0.86719,0.5953126 -0.12551,0 -0.39891,0.408577 -0.60756,0.907949 -0.20865,0.499372 -0.50023,0.982649 -0.64796,1.073948 -0.14772,0.0913 -0.26859,0.51616 -0.26859,0.944134 v 0.778135 h 4.87918 c 2.68354,0 4.9446,-0.105864 5.02457,-0.235253 z m 7.45631,12.632991 c -0.3735,-0.533244 -0.42673,-1.804051 -0.42673,-10.188752 0,-8.4418076 0.0505,-9.6299676 0.42476,-10.0042756 0.49143,-0.491429 1.2822,-0.334701 2.10584,0.417367 0.64824,0.591916 1.00269,0.626586 1.40838,0.137759 0.16478,-0.198548 1.18869,-0.504423 2.27536,-0.679721 2.45619,-0.396227 5.83402,0.05291 6.2505,0.831109 0.13958,0.260806 0.41545,0.474193 0.61304,0.474193 0.19759,0 0.43954,0.208359 0.53765,0.463021 0.1699,0.440972 0.19077,0.440972 0.43833,0 0.14297,-0.254662 0.41656,-0.463021 0.60798,-0.463021 0.19143,0 0.632,-0.221744 0.97904,-0.492764 1.01857,-0.795432 3.95879,-1.186413 6.07626,-0.808001 1.51731,0.271159 1.9611,0.485942 2.99656,1.450259 l 1.21547,1.13196 v 9.1488556 9.148857 h -0.63215 c -0.34768,0 -0.90256,-0.218972 -1.23307,-0.486603 -0.59418,-0.481132 -0.60029,-0.549722 -0.54392,-6.100216 0.078,-7.675316 -0.0646,-8.925948 -1.16702,-10.237195 -0.86561,-1.0295966 -0.88088,-1.0352496 -2.74263,-1.0152526 -1.35783,0.01458 -2.00663,0.14179 -2.36159,0.46302 -0.26917,0.243603 -0.64498,0.442913 -0.83511,0.442913 -0.19014,0 -0.62725,0.3037906 -0.97136,0.6750896 l -0.62565,0.675091 v 7.203538 c 0,6.091546 -0.0636,7.294313 -0.41188,7.791576 -0.50536,0.721511 -1.18219,0.749379 -2.00621,0.08261 l -0.62462,-0.505433 -0.0811,-7.382137 -0.0812,-7.382137 -0.92713,-1.042117 c -0.89186,-1.0024816 -0.9894,-1.0419376 -2.56468,-1.0374076 -1.15515,0.0033 -1.99748,0.180661 -2.85936,0.601989 -2.13742,1.0448776 -2.03669,0.6271356 -2.13238,8.8431196 -0.0925,7.940816 -0.0878,7.916339 -1.5769,8.281046 -0.54413,0.133266 -0.79172,0.03675 -1.12448,-0.438335 z M 128.1895,25.845393 c -0.51471,-0.214162 -0.53278,-0.533906 -0.66146,-11.702982 l -0.13229,-11.4828056 -3.50573,-0.07382 -3.50573,-0.07382 v -2.241279 -2.241279 h 10.18646 10.18646 v 1.96876 c 0,1.284458 -0.11496,2.043161 -0.33073,2.182813 -0.1819,0.117728 -1.81901,0.273583 -3.63802,0.346344 l -3.3073,0.132291 -0.13229,11.1694766 c -0.15357,12.966115 0.06,12.052789 -2.84512,12.16657 -0.9818,0.03845 -2.02321,-0.02916 -2.31425,-0.150259 z m 17.729,0.04876 c -0.72655,-0.06476 -1.50046,-0.274553 -1.71979,-0.466207 -0.21934,-0.191651 -0.67608,-0.433078 -1.01499,-0.536501 -0.68852,-0.210118 -2.95568,-2.280082 -2.95568,-2.698603 0,-0.147912 -0.22378,-0.471451 -0.4973,-0.718977 -0.27351,-0.247525 -0.57005,-0.905069 -0.65898,-1.461209 -0.0889,-0.556139 -0.34067,-1.354337 -0.55941,-1.773773 -0.54873,-1.052179 -0.54873,-5.500126 0,-6.552305 0.21874,-0.419436 0.47048,-1.217634 0.55941,-1.7737726 0.0889,-0.556139 0.38547,-1.213683 0.65898,-1.461209 0.27352,-0.247525 0.4973,-0.554668 0.4973,-0.68254 0,-0.202466 0.50818,-0.724662 2.11667,-2.175028 0.21828,-0.196823 0.81359,-0.446785 1.32291,-0.55547 0.50933,-0.108684 1.1609,-0.360989 1.44794,-0.560676 0.82107,-0.571202 4.51995,-0.465786 5.8281,0.166098 0.58209,0.281167 1.24399,0.515252 1.47089,0.52019 0.62486,0.0136 3.12131,2.543514 3.32987,3.374501 0.10081,0.401653 0.3418,0.888789 0.53554,1.082526 0.47234,0.4723406 0.50268,6.9373536 0.0348,7.4052836 -0.22796,0.227961 -1.98144,0.3175 -6.21771,0.3175 -5.76285,0 -5.90021,0.01257 -5.90021,0.53988 0,0.693896 1.03947,2.105953 1.55028,2.105953 0.21583,0 0.60792,0.195021 0.87131,0.433379 0.6731,0.609148 5.48495,0.597387 6.36003,-0.01555 0.77478,-0.542676 1.90534,-0.533697 2.36385,0.01877 0.22849,0.275315 0.36264,1.103656 0.36313,2.242267 7.9e-4,1.576973 -0.083,1.887936 -0.66068,2.455285 -0.62159,0.610465 -0.87679,0.656807 -4.23334,0.768776 -1.96453,0.06553 -4.16632,0.06616 -4.89287,0.0013 z m 4.70908,-14.083984 c 0.1172,-0.115764 0.1364,-0.516017 0.0427,-0.889451 -0.3555,-1.4164376 -4.62494,-1.6142436 -5.87815,-0.272337 -0.32742,0.350595 -0.59554,0.839672 -0.59583,1.086836 -4.8e-4,0.401977 0.32753,0.44074 3.10886,0.367411 1.71015,-0.04509 3.20526,-0.176694 3.32245,-0.292459 z m 15.00046,14.027109 c -0.80037,-0.08809 -1.74959,-0.368237 -2.10939,-0.622559 -0.3598,-0.254323 -0.84881,-0.462405 -1.08668,-0.462405 -0.60159,0 -3.06563,-2.522577 -3.27366,-3.351422 -0.094,-0.374688 -0.33336,-0.843637 -0.53184,-1.042109 -0.49855,-0.49855 -0.77423,-3.890336 -0.59395,-7.307635 0.12332,-2.337488 0.24947,-2.978923 0.69802,-3.5491626 0.30112,-0.382819 0.5481,-0.828805 0.54884,-0.991082 0.003,-0.724826 3.25317,-3.328343 4.1776,-3.346733 0.24819,-0.0049 0.92752,-0.239023 1.5096,-0.52019 1.49387,-0.721587 6.02313,-0.744758 7.62129,-0.03899 0.61048,0.269597 1.31832,0.563516 1.57298,0.653155 0.38857,0.136773 0.46302,0.501795 0.46302,2.27012 0,1.776421 -0.0727,2.129384 -0.46302,2.248866 -0.25466,0.07795 -2.25869,0.116314 -4.4534,0.08526 l -3.99039,-0.05647 -0.80559,0.8055946 c -0.44308,0.443077 -0.88929,1.186641 -0.99158,1.652365 -0.10229,0.465724 -0.29558,0.84677 -0.42954,0.84677 -0.39758,0 -0.27818,3.048132 0.15168,3.872361 0.21739,0.416816 0.39598,0.947688 0.39688,1.179716 0.002,0.468726 1.07568,1.82709 1.44443,1.82709 0.12943,0 0.4603,0.203605 0.73528,0.452456 0.40623,0.367627 0.97531,0.444836 3.03538,0.411815 1.39447,-0.02235 2.66119,-0.166426 2.81493,-0.320164 0.48573,-0.48573 1.97812,-0.333781 2.28105,0.232249 0.418,0.781031 0.32554,3.763288 -0.13558,4.373164 -0.59021,0.780616 -4.75737,1.119346 -8.58636,0.697944 z m 11.37708,0.0146 -0.66146,-0.19731 -0.0685,-13.812592 -0.0685,-13.8125836 h 2.9051 2.9051 l 0.0738,3.505729 0.0738,3.505729 0.66146,-0.09341 c 0.3638,-0.05138 0.74572,-0.22886 0.84872,-0.394406 0.10511,-0.168964 1.09987,-0.342436 2.26779,-0.395474 1.72619,-0.07839 2.25692,5.1e-5 3.11612,0.460551 0.56956,0.305269 1.24468,0.555034 1.50027,0.555034 0.25558,0 0.61341,0.238125 0.79516,0.529167 0.18176,0.291042 0.48417,0.529167 0.67201,0.529167 0.18784,0 0.41507,0.208359 0.50495,0.46302 0.0899,0.254662 0.37447,0.701146 0.63242,0.992188 0.73476,0.829002 1.03964,4.0546076 1.03964,10.9993526 0,6.082433 -0.0219,6.3527 -0.5567,6.887552 -0.48641,0.486415 -0.80148,0.544333 -2.49573,0.458777 -1.06647,-0.05385 -2.03635,-0.195077 -2.15529,-0.313827 -0.11893,-0.118753 -0.25642,-3.380209 -0.30553,-7.24768 -0.0845,-6.653925 -0.11916,-7.072159 -0.64507,-7.783492 -0.52026,-0.7036886 -0.67636,-0.7517246 -2.44274,-0.7517246 -1.69892,0 -1.97082,0.07486 -2.72837,0.7512046 l -0.8414,0.751205 v 6.889315 c 0,6.03251 -0.0534,6.933628 -0.42933,7.245627 -0.48136,0.399489 -3.56615,0.586597 -4.59776,0.278876 z m 20.83612,0.04101 c -0.25456,-0.06653 -0.52726,-0.380143 -0.60601,-0.696913 -0.0787,-0.316772 -0.10859,-5.074983 -0.0663,-10.573805 0.086,-11.1863206 -0.0489,-10.4992476 2.06122,-10.4992476 1.32423,0 1.67319,0.158396 1.94032,0.880714 0.15078,0.407686 0.35139,0.461431 1.17133,0.313796 0.54417,-0.09798 1.43955,-0.408651 1.98973,-0.69038 1.35663,-0.694679 4.15853,-0.686228 5.61425,0.01693 0.58208,0.281166 1.1807,0.515251 1.33026,0.520189 0.14956,0.0049 0.47306,0.217337 0.71888,0.471998 0.24582,0.254662 0.74948,0.759187 1.11924,1.121167 0.36977,0.36198 0.74496,0.897761 0.83378,1.190625 0.0888,0.292863 0.32131,0.715283 0.51666,0.93871 0.47808,0.546773 0.59483,16.2817786 0.12431,16.7523056 -0.17769,0.177686 -1.17388,0.303963 -2.39796,0.303963 -3.19189,0 -3.01335,0.462847 -3.17121,-8.221061 -0.11054,-6.080612 -0.19756,-7.318423 -0.52917,-7.527684 -0.21828,-0.137744 -1.19141,-0.2522666 -2.16251,-0.2544946 -1.52779,-0.0035 -1.88421,0.09217 -2.64584,0.7102686 -0.4841,0.392877 -0.91904,0.739306 -0.96653,0.769844 -0.0475,0.03054 -0.10702,3.171531 -0.13229,6.979985 -0.0533,8.037225 0.0657,7.697238 -2.67621,7.644742 -0.8817,-0.01688 -1.81136,-0.08513 -2.06592,-0.151656 z"
       id="path42"
       sodipodi:nodetypes="sssssscsssssssssssssssscsssssssssssssssssssssscssssssssssscssssssssssscssscssssccsssssssssssssscssssssscsssssssssssssssssssssssssscccscscsssssscsscssscccssssssssssssssssscssssssssssccscssssssscssssssssssssssssscccsssssssscssscccssssssssscccccccssscsssscsssscsscssssssssscssscsscssccccsssccssscsssccsssssscsssscssssssssccccccccsssssssssscsssssscssccsccssssscssssssssssscsss" />
    <path
       style="fill:#08a851;fill-opacity:0.988235;stroke-width:0.264583"
       d="m 227.01137,26.339819 c 0,-0.145521 -0.18115,-0.264583 -0.40255,-0.264583 -0.2214,0 -0.53816,-0.297656 -0.70392,-0.661458 -0.16576,-0.363802 -0.44762,-0.661459 -0.62634,-0.661459 -0.17873,0 -0.40098,-0.405223 -0.4939,-0.900496 -0.0929,-0.495272 -0.34429,-0.967785 -0.55861,-1.050029 -0.21432,-0.08224 -0.38968,-0.387206 -0.38968,-0.677695 0,-0.290489 -0.23812,-0.655602 -0.52916,-0.811363 -0.29105,-0.155761 -0.52917,-0.512499 -0.52917,-0.792752 0,-0.280253 -0.22847,-0.722549 -0.5077,-0.982879 -0.27924,-0.26033 -0.58764,-0.792134 -0.68534,-1.181787 -0.0977,-0.389653 -0.34548,-0.772869 -0.55063,-0.851592 -0.20515,-0.07872 -0.373,-0.38616 -0.373,-0.683193 0,-0.297033 -0.23812,-0.743949 -0.52916,-0.993146 -0.29105,-0.249198 -0.52917,-0.660114 -0.52917,-0.913146 0,-0.253032 -0.24834,-0.691422 -0.55187,-0.974199 -0.34287,-0.319436 -0.59443,-0.949574 -0.66425,-1.663953 -0.11005,-1.12584 0.28355,-2.60502 0.69317,-2.60502 0.11363,0 0.34199,-0.327422 0.50747,-0.727604 0.16548,-0.400183 0.593,-1.203854 0.95003,-1.785938 0.35704,-0.582083 0.82172,-1.424999 1.03264,-1.873146 0.21092,-0.448147 0.56896,-0.968741 0.79565,-1.156876 0.22669,-0.188135 0.41216,-0.547156 0.41216,-0.797826 0,-0.250669 0.23812,-0.671263 0.52917,-0.934652 0.29104,-0.263389 0.52916,-0.702298 0.52916,-0.975353 0,-0.273055 0.17132,-0.562204 0.38071,-0.642554 0.20939,-0.08035 0.45874,-0.501377 0.55412,-0.935616 0.0954,-0.434238 0.34077,-0.853749 0.54533,-0.932246 0.20456,-0.0785 0.37193,-0.308576 0.37193,-0.511288 0,-0.307808 1.483,-0.368568 8.99583,-0.368568 7.51283,0 8.99583,0.06076 8.99583,0.368568 0,0.202712 0.16737,0.432792 0.37193,0.511288 0.20456,0.0785 0.45214,0.507954 0.55019,0.95435 0.098,0.446395 0.27794,0.811627 0.39978,0.811627 0.12184,0 0.59336,0.76325 1.04782,1.69611 0.45445,0.932861 0.9925,1.834056 1.19565,2.002658 0.20315,0.1686 0.44601,0.655507 0.53969,1.082015 0.0937,0.426507 0.27833,0.775468 0.41033,0.775468 0.132,0 0.42449,0.386953 0.64997,0.859895 0.69523,1.458271 1.25931,2.427571 1.62624,2.794501 0.85434,0.854335 0.76193,3.151355 -0.16654,4.139659 -0.2968,0.315934 -0.53964,0.768084 -0.53964,1.004778 0,0.236695 -0.13121,0.511446 -0.29158,0.61056 -0.16037,0.09911 -0.45962,0.58239 -0.66501,1.073948 -0.20539,0.491558 -0.48144,0.893742 -0.61344,0.893742 -0.132,0 -0.32023,0.365233 -0.41827,0.811628 -0.0981,0.446395 -0.33836,0.87306 -0.53402,0.948145 -0.19567,0.07508 -0.4338,0.491803 -0.52917,0.926041 -0.0954,0.434239 -0.33624,0.85201 -0.53526,0.928382 -0.19902,0.07637 -0.4423,0.395747 -0.54062,0.709726 -0.0983,0.313978 -0.4005,0.854817 -0.67153,1.201864 -0.27102,0.347046 -0.49277,0.802865 -0.49277,1.012931 0,0.210065 -0.48596,0.848852 -1.07992,1.419527 l -1.07992,1.03759 h -7.65133 c -4.9245,0 -7.65133,-0.0943 -7.65133,-0.264584 z m 4.73053,-4.808046 c -0.62342,-0.166226 -1.06521,-0.490718 -1.26495,-0.929099 -0.65758,-1.443241 0.44069,-2.245659 2.61984,-1.914109 1.75611,0.267187 8.27574,0.268341 8.70006,0.0015 0.68832,-0.432797 -0.72862,-0.611836 -4.30271,-0.543676 -4.20335,0.08017 -4.13277,0.08709 -4.13277,-0.405563 0,-0.325666 0.51033,-0.404106 2.84427,-0.437175 3.39172,-0.04806 3.41983,-0.05019 3.64649,-0.276844 0.098,-0.09796 -1.17356,-0.116783 -2.8256,-0.04184 -2.14212,0.09718 -2.88986,0.05644 -2.60682,-0.142025 0.30794,-0.215932 0.2043,-0.265089 -0.4625,-0.219372 -0.47265,0.03241 -0.85961,0.172029 -0.85989,0.310274 -2.7e-4,0.138244 -0.14936,0.100027 -0.33126,-0.08493 -0.26536,-0.269815 -0.2047,-0.439246 0.30694,-0.857228 1.07003,-0.874172 0.40145,-1.04962 -3.69784,-0.970387 -3.45831,0.06684 -3.82106,0.118883 -3.90579,0.560312 -0.0514,0.267643 0.13279,0.743893 0.40923,1.058333 0.27644,0.31444 0.64567,0.869365 0.82051,1.233167 0.17483,0.363803 0.55333,1.018646 0.84111,1.455209 0.28777,0.436562 0.72528,1.180703 0.97223,1.653646 0.44461,0.851459 0.46735,0.859627 2.31824,0.83255 1.71069,-0.02503 1.78797,-0.04901 0.91121,-0.282784 z m 8.76322,0.105297 c 0,-0.195009 -3.54566,-0.138032 -4.10104,0.0659 -0.14552,0.05344 0.71768,0.106555 1.91823,0.118043 1.20055,0.01149 2.18281,-0.07129 2.18281,-0.183943 z m -9.0462,-1.581105 c -0.1074,-0.5577 -0.57697,-0.522535 -0.69663,0.05217 -0.0499,0.239709 0.0959,0.410851 0.35012,0.410851 0.27251,0 0.40228,-0.173407 0.34651,-0.463021 z m 1.61582,0.388152 c -0.0606,-0.04118 -0.34837,-0.249537 -0.63941,-0.463021 -0.48948,-0.359042 -0.50193,-0.353427 -0.16604,0.07487 0.19972,0.254661 0.48745,0.463021 0.63941,0.463021 0.15195,0 0.22667,-0.03369 0.16604,-0.07487 z m 6.30039,-0.349567 c -0.0879,-0.08792 -0.31612,-0.09732 -0.50712,-0.02089 -0.21106,0.08446 -0.14837,0.147157 0.15986,0.159853 0.27891,0.01149 0.43518,-0.05105 0.34726,-0.138965 z m 2.12526,-0.286521 c -0.25296,-0.06622 -0.72921,-0.06863 -1.05833,-0.0053 -0.32912,0.06329 -0.12215,0.117469 0.45994,0.120406 0.58208,0.0029 0.85136,-0.04884 0.59839,-0.115067 z m -1.13848,-4.598383 c -0.19764,-0.31979 -5.67762,-0.324014 -5.67762,-0.0044 0,0.386092 0.35852,0.423945 3.17395,0.335104 1.55558,-0.04909 2.59303,-0.186132 2.50367,-0.330729 z m 0.81122,-1.580432 c 0.11156,-0.180496 -0.0879,-0.21321 -0.57969,-0.09507 -1.01373,0.243527 -1.10968,0.370259 -0.28032,0.370259 0.37946,0 0.76647,-0.123834 0.86001,-0.275189 z m 3.49367,-0.149248 c -0.0879,-0.08792 -0.31613,-0.09732 -0.50712,-0.02089 -0.21107,0.08446 -0.14837,0.147156 0.15985,0.159852 0.27892,0.01149 0.43519,-0.05105 0.34727,-0.138964 z m 1.10794,-1.33209 c 0.34952,-0.302959 -0.56301,-0.48335 -2.83472,-0.560374 -4.89552,-0.165988 -14.9223,-0.03149 -15.55389,0.208643 -0.79809,0.303434 -1.28896,0.118686 -1.81409,-0.682775 -0.56623,-0.864168 -0.52327,-1.146904 0.28857,-1.89929 0.5937,-0.550222 0.79861,-0.605629 1.33536,-0.361069 0.80808,0.368183 13.11633,0.392062 12.48698,0.02423 -0.23392,-0.136716 -1.09712,-0.270528 -1.91823,-0.29736 -0.82111,-0.02683 -1.49293,-0.147209 -1.49293,-0.267505 0,-0.120296 -0.31439,-0.297627 -0.69865,-0.394069 -0.38425,-0.09644 -1.14423,-0.634492 -1.68883,-1.195666 -0.5446,-0.561175 -1.11726,-1.020317 -1.27258,-1.020317 -0.15532,0 -0.4052,-0.20836 -0.55529,-0.463021 -0.183,-0.310509 -0.33984,-0.367788 -0.47616,-0.173897 -0.35644,0.506956 -1.84165,0.656955 -2.20228,0.222419 -0.44594,-0.537323 -0.0769,-0.828278 0.55223,-0.435381 0.79455,0.496206 0.9482,0.379508 0.29794,-0.226296 -0.32293,-0.300855 -0.79186,-0.504881 -1.04207,-0.45339 -0.25022,0.05149 -0.5857,-0.07773 -0.74553,-0.287163 -0.36014,-0.471917 -0.90003,-0.1757 -0.90003,0.493812 0,0.273865 -0.13121,0.57903 -0.29158,0.678143 -0.16037,0.09911 -0.46836,0.552625 -0.68441,1.007803 -0.70219,1.479337 -1.30113,2.481059 -1.75457,2.934499 -0.24445,0.24444 -0.44444,0.647596 -0.44444,0.895903 0,0.248307 -0.23813,0.655355 -0.52917,0.904553 -0.57715,0.494177 -0.62813,0.686572 -0.31325,1.182335 0.29751,0.468405 21.71834,0.627473 22.25162,0.165238 z m -19.29253,-1.253785 c 0,-0.05494 -0.18132,-0.250377 -0.40294,-0.434299 -0.3369,-0.279607 -0.37562,-0.263238 -0.23627,0.0999 0.14232,0.370876 0.63921,0.630826 0.63921,0.334404 z m 17.72708,-1.868866 c 0,-0.06417 -0.11906,-0.190261 -0.26458,-0.280198 -0.14553,-0.08994 -0.26459,-0.03743 -0.26459,0.116677 0,0.154109 0.11906,0.280198 0.26459,0.280198 0.14552,0 0.26458,-0.0525 0.26458,-0.116677 z M 241.99692,5.46423 c -0.60051,-0.395908 -1.23963,-0.497745 -3.08912,-0.492227 -2.20952,0.0066 -2.31575,0.03289 -2.02346,0.500929 0.2695,0.431534 0.65995,0.49375 3.08911,0.492227 l 2.78063,-0.0017 -0.75716,-0.499186 z M 241.4918,3.954966 c -0.0879,-0.08792 -0.31613,-0.09732 -0.50712,-0.02089 -0.21107,0.08446 -0.14837,0.147157 0.15985,0.159853 0.27892,0.01149 0.43519,-0.05105 0.34727,-0.138965 z M 229.21379,2.950061 c 0.1654,-0.431017 -0.0568,-0.736436 -0.38724,-0.532226 -0.30055,0.185749 -0.29372,0.903234 0.009,0.903234 0.12995,0 0.30034,-0.166954 0.37864,-0.371008 z m 6.59498,-0.430987 c -0.32742,-0.131608 -0.59644,-0.33242 -0.59782,-0.44625 -0.001,-0.11383 -1.2813,-0.216232 -2.84427,-0.227561 -1.56297,-0.01133 -2.58252,0.02558 -2.26567,0.08203 0.31686,0.05645 0.71839,0.274073 0.89229,0.483618 0.23711,0.285698 0.95332,0.376796 2.86349,0.36422 1.79497,-0.01182 2.37147,-0.08744 1.95198,-0.256057 z"
       id="path44"
       sodipodi:nodetypes="sssssssssssssssssssssssssssssssscsssssssssssscssssssscsscsscsssssssssssssssssccssssssssssssssssssccccccssccssssssssssssssssssssssssssssssssssssssssssssssscssccccssssscssccscsssss" />
  </g>
</svg>
