<?xml version="1.0" encoding="UTF-8" standalone="no"?>
<svg
   xmlns:dc="http://purl.org/dc/elements/1.1/"
   xmlns:cc="http://creativecommons.org/ns#"
   xmlns:rdf="http://www.w3.org/1999/02/22-rdf-syntax-ns#"
   xmlns:svg="http://www.w3.org/2000/svg"
   xmlns="http://www.w3.org/2000/svg"
   xmlns:sodipodi="http://sodipodi.sourceforge.net/DTD/sodipodi-0.dtd"
   xmlns:inkscape="http://www.inkscape.org/namespaces/inkscape"
   width="285.95502mm"
   height="122.6878mm"
   viewBox="0 0 285.95502 122.6878"
   version="1.1"
   id="svg8"
   inkscape:version="1.0.1 (3bc2e813f5, 2020-09-07)"
   sodipodi:docname="logo_Ultra_robotics.svg">
  <defs
     id="defs2" />
  <sodipodi:namedview
     id="base"
     pagecolor="#ffffff"
     bordercolor="#666666"
     borderopacity="1.0"
     inkscape:pageopacity="0.0"
     inkscape:pageshadow="2"
     inkscape:zoom="0.35"
     inkscape:cx="112.56094"
     inkscape:cy="431.12395"
     inkscape:document-units="mm"
     inkscape:current-layer="layer1"
     inkscape:document-rotation="0"
     showgrid="false"
     fit-margin-top="0"
     fit-margin-left="0"
     fit-margin-right="0"
     fit-margin-bottom="0"
     inkscape:window-width="1460"
     inkscape:window-height="1032"
     inkscape:window-x="130"
     inkscape:window-y="0"
     inkscape:window-maximized="0" />
  <metadata
     id="metadata5">
    <rdf:RDF>
      <cc:Work
         rdf:about="">
        <dc:format>image/svg+xml</dc:format>
        <dc:type
           rdf:resource="http://purl.org/dc/dcmitype/StillImage" />
        <dc:title></dc:title>
      </cc:Work>
    </rdf:RDF>
  </metadata>
  <g
     inkscape:label="Warstwa 1"
     inkscape:groupmode="layer"
     id="layer1"
     transform="translate(-86.744411,6.1016579)">
    <path
       style="fill:#ffffff;stroke-width:0.264583"
       d="m 147.28551,116.42492 c 0.19099,-0.0764 0.4192,-0.067 0.50712,0.0209 0.0879,0.0879 -0.0684,0.15045 -0.34727,0.13896 -0.30822,-0.0127 -0.37092,-0.0754 -0.15985,-0.15985 z m 46.48398,-0.12162 c -2.61804,-0.61269 -3.27153,-0.86314 -4.76446,-1.82602 -2.1172,-1.36551 -3.31994,-2.65747 -4.51552,-4.85051 -1.36311,-2.50033 -1.96201,-4.80733 -2.13771,-8.23465 -0.38641,-7.537474 3.0978,-13.625184 9.11786,-15.931004 1.60378,-0.61428 2.13226,-0.6786 5.60712,-0.68236 3.5931,-0.004 3.94556,0.0419 5.55625,0.72144 4.2475,1.79203 7.424,5.68979 8.51177,10.44446 0.58831,2.57152 0.57093,6.447464 -0.041,9.133444 -0.67693,2.97152 -1.24489,4.22905 -2.87614,6.36819 -1.4454,1.89542 -1.54674,1.98317 -3.73431,3.23326 -2.83234,1.61855 -7.63729,2.34609 -10.7239,1.62375 z m 5.8486,-7.00459 c 2.04648,-0.97112 3.30383,-4.17461 3.34515,-8.5228 0.0551,-5.798614 -1.90339,-9.223154 -5.43719,-9.507284 -4.30014,-0.34575 -6.58845,2.95232 -6.60264,9.516164 -0.0105,4.86225 1.40114,7.97807 3.98723,8.80073 1.40748,0.44773 3.41761,0.32526 4.70745,-0.28681 z m 30.00244,6.9292 c -1.76105,-0.48873 -2.67172,-1.03216 -3.96359,-2.36519 -0.63815,-0.65847 -1.24364,-1.1457 -1.34554,-1.08272 -0.1019,0.063 -0.26728,0.77092 -0.36752,1.57321 -0.10237,0.81934 -0.31887,1.46757 -0.49395,1.47893 -0.17143,0.0111 -1.71659,0.0518 -3.43369,0.0903 -2.77598,0.0623 -3.1502,0.0174 -3.37639,-0.40522 -0.33878,-0.63302 -0.32806,-43.545764 0.0109,-43.755274 0.13605,-0.0841 2.00858,-0.16271 4.16117,-0.17472 l 3.91379,-0.0218 0.13229,8.22434 0.1323,8.22435 0.9249,-0.94626 c 0.50871,-0.52043 1.52074,-1.25795 2.24896,-1.63893 1.21176,-0.63393 1.5821,-0.69138 4.36676,-0.67741 2.86527,0.0144 3.13528,0.0629 4.63021,0.83169 4.37104,2.24796 6.63855,6.74204 7.17548,14.22142 0.19337,2.693684 -0.41857,7.189134 -1.22457,8.995834 -0.25968,0.58209 -0.6458,1.47505 -0.85806,1.98438 -0.57994,1.39162 -2.20649,3.20317 -3.73294,4.15754 -2.36437,1.47825 -6.20655,2.0332 -8.90054,1.28554 z m 2.98506,-6.86419 c 2.0401,-0.86927 3.0531,-3.17453 3.28631,-7.47857 0.12141,-2.240554 0.0452,-3.089724 -0.46308,-5.159374 -0.99495,-4.05139 -2.32327,-5.36873 -5.41141,-5.36669 -1.84047,10e-4 -2.90544,0.47764 -4.24698,1.89992 l -0.9124,0.96732 v 6.522304 6.5223 l 0.91087,0.89061 c 0.50098,0.48983 1.30465,1.03328 1.78594,1.20765 1.20469,0.43647 4.02072,0.43342 5.05075,-0.005 z m 25.76164,6.66516 c -4.87942,-1.24381 -8.24216,-4.67608 -9.76771,-9.96965 -0.77658,-2.69472 -0.82614,-7.987004 -0.10069,-10.752534 1.20825,-4.60605 4.10978,-8.0008 8.37379,-9.79722 1.60638,-0.67676 1.97277,-0.72469 5.55625,-0.72686 3.25678,-0.002 4.04793,0.0805 5.23608,0.54558 4.68681,1.83468 8.17281,5.92911 9.06698,10.64948 0.44892,2.36984 0.39657,7.144964 -0.10306,9.401154 -1.26986,5.73432 -5.41675,9.8899 -10.81774,10.84041 -2.88249,0.50728 -4.91055,0.45542 -7.4439,-0.19036 z m 7.29121,-7.0481 c 1.21843,-0.75303 2.16672,-2.61368 2.69045,-5.27893 0.5464,-2.78069 0.53964,-3.42529 -0.0663,-6.320184 -0.57309,-2.7379 -0.97007,-3.60146 -2.19311,-4.77072 -1.52275,-1.45579 -3.32172,-1.78143 -5.53242,-1.00145 -1.52647,0.53857 -1.99715,1.00836 -2.90266,2.89716 -2.30957,4.81754 -1.22723,13.036264 1.94,14.731304 0.77104,0.41266 3.05168,0.66989 4.1915,0.47277 0.52807,-0.0913 1.37073,-0.4198 1.87256,-0.72995 z m 24.62303,7.346 c -2.82491,-0.55755 -4.87097,-2.19539 -5.93164,-4.7482 -0.58421,-1.40606 -0.60785,-1.77466 -0.69995,-10.91406 l -0.0953,-9.458864 h -2.22847 -2.22846 v -2.91696 c 0,-2.91224 0.001,-2.9174 0.70136,-3.18363 0.39333,-0.14954 1.37777,-0.19013 2.24149,-0.0924 l 1.54013,0.17425 0.0736,-3.80365 0.0736,-3.80364 h 4.10105 4.10104 l 0.13229,3.70417 0.13229,3.70416 0.79375,0.0418 c 0.43656,0.023 1.59742,0.0528 2.57969,0.0661 l 1.78593,0.0243 v 3.0427 3.04271 h -2.64583 -2.64583 v 8.1626 c 0,4.927094 0.10821,8.473024 0.273,8.945734 0.34504,0.9898 1.63168,1.49125 3.51325,1.36925 l 1.37312,-0.089 0.20666,2.64584 c 0.28943,3.70546 0.30965,3.66289 -1.9225,4.04566 -2.08398,0.35737 -3.56281,0.36899 -5.22426,0.0411 z m 38.42552,0.17053 c -0.14552,-0.0567 -1.15755,-0.3076 -2.24896,-0.55751 -2.4017,-0.54992 -3.88654,-1.38011 -5.68486,-3.17841 -1.58605,-1.58605 -2.71534,-3.49149 -3.60201,-6.0776 -0.56698,-1.65367 -0.63486,-2.3056 -0.63363,-6.08542 0.002,-4.682694 0.38266,-6.463314 1.98166,-9.258074 1.70799,-2.98526 3.61994,-4.63199 6.84786,-5.89793 1.57313,-0.61697 2.11788,-0.68828 5.32431,-0.69696 3.16812,-0.009 3.75132,0.0622 5.15938,0.6261 4.32276,1.73118 6.82157,4.8407 7.49461,9.32636 0.12444,0.82931 0.14679,1.63638 0.0497,1.79348 -0.11671,0.1888 -1.46945,0.26067 -3.98979,0.21196 l -3.81322,-0.0737 -0.18164,-1.27205 c -0.56891,-3.98396 -4.82677,-5.41853 -8.21981,-2.76943 -1.2333,0.96291 -2.0198,3.26747 -2.2401,6.56392 -0.30014,4.491114 0.76952,8.504024 2.63285,9.877504 0.90114,0.66423 3.38857,0.99316 4.86555,0.64339 1.44055,-0.34114 2.70933,-1.65021 2.91891,-3.0116 0.0877,-0.56974 0.25157,-1.15496 0.36412,-1.30048 0.1248,-0.16133 1.67301,-0.23316 3.96748,-0.18407 l 3.76283,0.0805 -0.14399,1.58808 c -0.19757,2.1786 -1.28035,4.28339 -3.12076,6.06625 -1.69138,1.63848 -3.12055,2.46255 -5.2728,3.04031 -1.41211,0.37907 -5.68325,0.75369 -6.21771,0.54535 z m 27.51666,-0.31098 c -3.02492,-0.56566 -5.07484,-1.60383 -6.97253,-3.53123 -1.92908,-1.95925 -2.88859,-4.19081 -2.7128,-6.30911 0.0217,-0.26108 0.91374,-0.32118 3.92731,-0.26459 3.66758,0.0689 3.90404,0.10467 3.97907,0.60239 0.21003,1.39334 0.39989,1.77644 1.2773,2.57731 1.71099,1.56173 5.44362,1.84849 7.30155,0.56094 1.29802,-0.89953 1.61748,-1.4865 1.39245,-2.55846 -0.30922,-1.4728 -1.58636,-2.5113 -3.95486,-3.21584 -1.16644,-0.34698 -2.53754,-0.71474 -3.04686,-0.81724 -4.66024,-0.93788 -8.10215,-3.11115 -9.35752,-5.908484 -2.13762,-4.76321 0.55195,-9.84622 6.29513,-11.89723 1.65195,-0.58995 2.29124,-0.66824 5.44364,-0.66663 3.05668,0.002 3.81992,0.09 5.29167,0.61328 2.58847,0.92032 3.08956,1.23389 4.88704,3.05809 1.45166,1.47327 1.70606,1.88838 2.08721,3.4058 0.75907,3.02178 1.01558,2.80992 -3.40238,2.80992 -2.11005,0 -3.92575,0.007 -4.03489,0.0161 -0.10915,0.009 -0.30322,-0.42335 -0.4313,-0.96046 -0.28848,-1.20979 -1.93374,-2.90613 -3.05814,-3.1531 -0.45725,-0.10042 -1.45108,-0.0974 -2.2085,0.007 -1.10466,0.15193 -1.57371,0.38598 -2.37059,1.18287 -0.80814,0.80815 -0.99345,1.18568 -0.99345,2.02404 0,2.04988 1.49487,3.00321 5.97413,3.8099 5.5427,0.99821 9.79921,3.765314 10.82921,7.039904 0.86217,2.74103 0.009,6.21854 -2.03393,8.29399 -2.78503,2.82884 -8.9094,4.25316 -14.10796,3.28104 z M 86.81112,55.156176 l 0.06671,-61.1848903 21.61916,-0.0616 c 11.89054,-0.0339 21.98109,0.0108 22.42344,0.0992 l 0.80427,0.16085 V 55.255416 116.3411 H 109.23456 86.744411 Z m 59.3116,60.677784 c -0.0608,-0.0606 -0.11052,-9.38611 -0.11052,-20.723284 v -20.61305 l 9.98802,0.10114 c 9.58956,0.0971 10.05616,0.12524 11.69586,0.70522 2.74831,0.9721 3.80493,1.55165 5.36666,2.94361 1.52801,1.36188 2.67902,3.04175 2.99898,4.37692 0.10227,0.42676 0.29795,0.91847 0.43484,1.09269 0.47629,0.60613 0.25592,4.5616 -0.35669,6.40251 -0.68407,2.05562 -2.63083,4.31627 -4.39694,5.10588 -0.61846,0.27651 -1.12448,0.58666 -1.12448,0.68922 0,0.10256 0.70076,0.51738 1.55723,0.92181 1.79847,0.84924 3.3254,2.48138 4.07623,4.357084 0.38658,0.96576 0.55234,2.32883 0.7159,5.88695 0.22228,4.83564 0.44356,5.91143 1.51183,7.35002 0.35439,0.47725 0.60113,0.9974 0.5483,1.1559 -0.0627,0.18797 -1.58256,0.31285 -4.37111,0.35915 -4.82437,0.0801 -4.74489,0.10894 -5.51036,-1.99904 -0.28918,-0.79636 -0.49705,-2.68542 -0.6422,-5.83627 -0.23881,-5.18378 -0.37002,-5.63575 -2.08624,-7.18625 -1.28302,-1.159144 -1.59306,-1.214514 -7.37141,-1.316444 l -4.56038,-0.0804 -0.0698,8.175684 -0.0698,8.17568 -4.05667,0.0328 c -2.23117,0.018 -4.10641,-0.0168 -4.16719,-0.0775 z m 17.65321,-23.324994 c 0.25175,-0.13474 0.75408,-0.24497 1.11629,-0.24497 0.89113,0 2.25556,-1.1991 2.84766,-2.5026 0.6336,-1.39489 0.63083,-3.66014 -0.006,-5.06284 -0.5882,-1.29515 -2.14158,-2.66415 -3.59811,-3.17101 -0.73307,-0.25511 -2.37741,-0.36931 -5.35721,-0.37207 l -4.29947,-0.004 v 5.77673 c 0,3.17721 0.0493,5.82635 0.10959,5.88698 0.21625,0.21754 8.73964,-0.0666 9.18747,-0.30624 z m 139.02012,23.122754 c -0.22751,-0.59289 -0.18056,-30.508094 0.0479,-30.533844 0.30557,-0.0344 6.14939,-0.04 7.34219,-0.007 l 1.05833,0.0293 -0.0625,15.279724 c -0.0344,8.40385 -0.0645,15.33926 -0.067,15.41202 -0.002,0.0728 -1.84137,0.15024 -4.08647,0.17217 -3.38862,0.0331 -4.10756,-0.0267 -4.23252,-0.35236 z m -0.0403,-37.633184 c -0.0606,-0.0606 -0.11025,-1.51914 -0.11025,-3.24114 v -3.1309 l 3.83646,-0.0331 c 2.11005,-0.0182 4.02999,-0.0479 4.26652,-0.0661 0.37631,-0.0289 0.4268,0.36383 0.40393,3.14192 -0.0144,1.74625 -0.0293,3.23453 -0.0332,3.3073 -0.008,0.1587 -8.20521,0.18031 -8.36347,0.022 z M 158.97679,40.405806 c -3.5488,-0.42773 -6.77904,-1.85936 -8.93607,-3.96042 -1.68845,-1.64465 -2.55729,-3.1742 -3.20266,-5.63816 -0.49297,-1.88214 -0.53346,-3.02041 -0.60621,-17.04513 l -0.078,-15.0283103 2.97186,-0.0748 2.97186,-0.0748 V 13.353936 c 0,12.22325 0.0679,15.03039 0.39377,16.28151 1.0052,3.85926 3.98247,5.9549 8.76119,6.16685 4.51144,0.2001 7.81865,-1.55193 9.78968,-5.18619 0.47417,-0.87431 0.50688,-1.79446 0.58546,-16.47032 0.0503,-9.4013703 0.18104,-15.5486203 0.33073,-15.5552903 1.52173,-0.0678 5.34687,-0.005 5.44122,0.0895 0.0674,0.0674 0.11364,6.83412 0.10278,15.0371603 -0.022,16.61634 -0.0674,17.14735 -1.7163,20.07399 -1.26884,2.25209 -2.60301,3.4624 -5.35044,4.85376 -2.93928,1.4885 -7.67779,2.2167 -11.45892,1.76097 z m 48.87452,-0.0104 c -1.38294,-0.23257 -3.16871,-1.1737 -4.08087,-2.15071 -0.32032,-0.34308 -0.85306,-1.21762 -1.18388,-1.94341 -0.58553,-1.28459 -0.60519,-1.60404 -0.74053,-12.03524 l -0.13904,-10.71563 -2.31264,-0.0764 c -2.66755,-0.0881 -2.66343,-0.0835 -2.52802,-2.834 l 0.0782,-1.5875003 2.3124,-0.0105 c 2.36087,-0.0108 3.16352,-0.30061 2.68726,-0.97046 -0.13372,-0.18806 -0.18225,-1.71115 -0.10785,-3.38464 l 0.13528,-3.04271 2.83721,-0.0315 2.83722,-0.0316 0.0732,3.69958 0.0732,3.69957 2.69008,0.0361 c 1.47954,0.0199 2.77521,0.12133 2.87924,0.22545 0.10405,0.10412 0.2032,1.0566203 0.22034,2.1166703 l 0.0312,1.92735 -2.98543,0.0749 -2.98544,0.0749 0.075,10.33313 0.075,10.33313 0.72865,0.62653 c 0.87702,0.75412 2.29676,1.0634 3.2996,0.7188 1.00285,-0.3446 1.39498,-0.15383 1.39969,0.68098 0.002,0.38806 0.1725,1.18181 0.37846,1.76389 0.33635,0.95057 0.32921,1.10165 -0.0701,1.48372 -0.64457,0.61672 -2.5677,1.29938 -3.55881,1.26328 -0.47,-0.0171 -1.42335,-0.12677 -2.11856,-0.24368 z m 38.96714,0.026 c -3.1658,-0.55813 -5.529,-2.15544 -6.82546,-4.61337 -0.6569,-1.24539 -0.71501,-1.60283 -0.71509,-4.39826 -6e-5,-2.39263 0.10105,-3.24576 0.47326,-3.9931 1.21273,-2.435 4.56602,-4.58522 8.25791,-5.29519 1.0534,-0.20257 3.64912,-0.35893 6.01922,-0.36259 2.57865,-0.004 4.17758,-0.10727 4.19456,-0.271 0.0151,-0.14552 0.004,-1.21427 -0.0251,-2.37499 -0.0782,-3.13894 -0.81345,-4.35336 -3.30241,-5.45434 -1.07783,-0.47678 -1.60411,-0.54772 -3.12027,-0.42061 -2.20731,0.18505 -4.37465,1.27144 -4.89961,2.45595 -0.99373,2.2422 -0.72833,2.08983 -3.63999,2.08983 h -2.63471 l -0.0807,-0.96914 c -0.20399,-2.44838 2.94144,-5.95167 6.61942,-7.3725203 1.98505,-0.76686 2.46803,-0.84749 5.10299,-0.85199 3.18711,-0.005 4.49993,0.28198 6.74687,1.4770803 1.99109,1.05901 3.35975,2.41535 4.18232,4.14469 l 0.69218,1.45521 0.16592,10.31875 c 0.10463,6.50738 0.28615,10.89036 0.49142,11.86631 0.17903,0.85115 0.2732,1.68459 0.20927,1.85208 -0.0803,0.21051 -0.97833,0.27897 -2.90859,0.22175 l -2.79234,-0.0828 -0.28468,-0.8166 c -0.15657,-0.44914 -0.28467,-1.20853 -0.28467,-1.68756 0,-1.33101 -0.46265,-1.3421 -1.81126,-0.0434 -2.66539,2.56671 -6.35219,3.73901 -9.83041,3.12579 z m 4.61428,-5.06449 c 2.2164,-0.3956 4.08129,-1.36018 5.50809,-2.84897 l 1.20873,-1.26124 0.0751,-2.63045 0.0751,-2.63044 -4.48389,0.01 c -3.8124,0.008 -4.62257,0.0822 -5.40993,0.49264 -1.75238,0.91344 -2.9029,2.28198 -3.54331,4.2148 -0.52143,1.57369 0.81305,3.8453 2.64792,4.5074 1.31409,0.47418 1.95197,0.49797 3.92217,0.14632 z m -65.46914,4.33004 c -2.6e-4,-0.11407 -0.0504,-9.97897 -0.11103,-21.922 -0.0607,-11.9430403 -0.0209,-21.8593803 0.0885,-22.0363103 0.14061,-0.22752 1.00582,-0.29948 2.9553,-0.24581 l 2.75649,0.0759 v 22.0927003 22.09271 l -2.84427,0.0751 c -1.56435,0.0413 -2.84459,-0.0182 -2.84497,-0.13229 z m 34.25339,-0.14124 c -0.0696,-0.18191 -0.0956,-7.1173 -0.0579,-15.41198 l 0.0687,-15.0812503 h 2.62756 2.62757 l 0.10532,1.4552003 c 0.0579,0.80037 0.21591,1.56927 0.3511,1.70868 0.15456,0.15938 0.76056,-0.24792 1.63274,-1.0974 2.18947,-2.1324803 4.52968,-2.9720603 7.12673,-2.5567703 0.97274,0.15555 1.04225,0.22205 0.89741,0.85861 -0.0864,0.37951 -0.23353,1.5569803 -0.32706,2.6166203 -0.0935,1.05963 -0.30142,2.00838 -0.46197,2.10832 -0.16055,0.1 -1.07625,0.14592 -2.03489,0.10215 -2.52993,-0.1155 -3.79644,0.31339 -5.37692,1.82081 l -1.34676,1.28451 -0.0744,11.26161 -0.0744,11.26161 h -2.77818 c -1.97867,0 -2.8146,-0.0952 -2.90471,-0.33072 z"
       id="path24" />
  </g>
</svg>
