<svg width="540" height="194" viewBox="0 0 540 194" fill="none" xmlns="http://www.w3.org/2000/svg">
<path d="M53.8487 184.553C28.9846 184.553 8.75572 164.324 8.75572 139.46C8.75572 114.594 28.9846 94.3667 53.8487 94.3667C78.7128 94.3667 98.9417 114.594 98.9417 139.46C98.9417 164.324 78.7128 184.553 53.8487 184.553ZM53.8487 99.9418C32.0586 99.9418 14.3328 117.672 14.3328 139.46C14.3328 161.248 32.0586 178.975 53.8487 178.975C75.6388 178.975 93.3646 161.248 93.3646 139.46C93.3646 117.672 75.6388 99.9418 53.8487 99.9418Z" fill="white"/>
<path d="M100.603 0C51.2179 0 11.0404 40.1774 11.0404 89.5627C11.0404 90.9847 11.0828 92.3926 11.1473 93.7984C13.1422 92.804 15.1915 91.9085 17.2973 91.1218C17.2872 90.6014 17.2569 90.0851 17.2569 89.5627C17.2569 43.6064 54.6448 6.21451 100.603 6.21451C146.559 6.21451 183.951 43.6064 183.951 89.5627C183.951 134.968 147.449 171.987 102.251 172.868C101.547 175 100.734 177.082 99.8245 179.107C100.083 179.107 100.343 179.127 100.603 179.127C149.988 179.127 190.166 138.95 190.166 89.5627C190.166 40.1774 149.988 0 100.603 0Z" fill="white"/>
<path d="M8.12519 114.093C8.12519 120.957 13.6922 126.526 20.5582 126.526C27.4242 126.526 32.9893 120.957 32.9893 114.093C32.9893 107.227 27.4242 101.66 20.5582 101.66C13.6922 101.66 8.12519 107.227 8.12519 114.093Z" fill="white"/>
<path d="M16.8448 173.799L0.853683 189.201C-0.25569 190.273 -0.287965 192.037 0.781067 193.147C1.32769 193.714 2.05786 194 2.78802 194C3.4839 194 4.1818 193.742 4.72237 193.219L20.8668 177.67C19.4569 176.454 18.1135 175.163 16.8448 173.799ZM200.426 0.852169C199.359 -0.255186 197.594 -0.287458 196.482 0.779557L89.5591 103.762C90.8742 105.081 92.1086 106.477 93.2725 107.931L200.351 4.7975C201.461 3.72847 201.495 1.96154 200.426 0.852169Z" fill="white"/>
<path d="M286.739 112.293H269.046L243.488 77.3697C242.352 75.7944 240.305 71.849 237.338 65.5397C238.032 71.0927 238.377 75.5402 238.377 78.8825V112.293H220.584V44.625H238.377L263.935 79.4533C265.004 80.9035 267.055 84.8791 270.084 91.376C269.389 85.8271 269.046 81.3796 269.046 78.0313V44.625H286.739V112.293Z" fill="white"/>
<path d="M352.226 112.197H337.078V104.722C332.917 110.971 327.333 114.093 320.33 114.093C314.146 114.093 309.174 111.82 305.424 107.276C301.669 102.735 299.789 96.6477 299.789 89.0112C299.789 81.4413 301.733 75.3982 305.616 70.8901C309.495 66.378 314.743 64.1209 321.371 64.1209C328.243 64.1209 333.451 67.1808 336.987 73.3025V65.6357H352.226V112.197ZM337.741 88.9164C337.741 85.32 336.763 82.4518 334.811 80.3077C332.854 78.1596 330.202 77.0845 326.861 77.0845C323.519 77.0845 320.881 78.1596 318.957 80.3077C317.032 82.4518 316.07 85.32 316.07 88.9164C316.07 92.5774 317.032 95.4456 318.957 97.5312C320.881 99.6128 323.519 100.652 326.861 100.652C330.202 100.652 332.854 99.6128 334.811 97.5312C336.763 95.4456 337.741 92.5774 337.741 88.9164Z" fill="white"/>
<path d="M414.678 89.487C414.678 93.9668 414.424 97.2788 413.92 99.4209C413.161 102.64 411.545 105.486 409.081 107.941C404.972 112.046 398.776 114.097 390.496 114.097C382.341 114.097 376.112 112.046 371.814 107.941C369.474 105.67 367.895 102.927 367.074 99.7093C366.563 97.4321 366.317 94.0334 366.317 89.487V65.6375H382.024V90.5257C382.024 94.3138 382.625 97.0569 383.821 98.7634C385.086 100.653 387.232 101.601 390.256 101.601C393.289 101.601 395.433 100.653 396.694 98.7634C397.892 97.0569 398.491 94.3138 398.491 90.5257V65.6375H414.678V89.487Z" fill="white"/>
<path d="M484.046 112.294H462.373L444.766 91.5692V112.294H428.582V40.651H444.766V85.986L461.71 65.6361H482.154L461.143 88.0676L484.046 112.294Z" fill="white"/>
<path d="M539.497 112.197H524.353V104.722C520.194 110.971 514.607 114.093 507.602 114.093C501.421 114.093 496.449 111.82 492.698 107.276C488.946 102.735 487.064 96.6477 487.064 89.0112C487.064 81.4413 489.004 75.3982 492.887 70.8901C496.768 66.378 502.018 64.1209 508.644 64.1209C515.519 64.1209 520.724 67.1808 524.262 73.3025V65.6357H539.497V112.197ZM525.017 88.9164C525.017 85.32 524.038 82.4518 522.084 80.3077C520.129 78.1596 517.475 77.0845 514.133 77.0845C510.791 77.0845 508.154 78.1596 506.23 80.3077C504.304 82.4518 503.344 85.32 503.344 88.9164C503.344 92.5774 504.304 95.4456 506.23 97.5312C508.154 99.6128 510.791 100.652 514.133 100.652C517.475 100.652 520.129 99.6128 522.084 97.5312C524.038 95.4456 525.017 92.5774 525.017 88.9164Z" fill="white"/>
<path d="M231.226 142.217H228.306V156.811H221.563V142.217H218.644V137.368H221.563V131.575H228.306V137.368H231.226V142.217Z" fill="white"/>
<path d="M255.903 147.149C255.903 150.043 254.852 152.504 252.748 154.525C250.643 156.55 248.065 157.561 245.019 157.561C241.941 157.561 239.365 156.55 237.29 154.525C235.208 152.504 234.176 150.043 234.176 147.149C234.176 144.259 235.216 141.8 237.306 139.775C239.396 137.754 241.969 136.741 245.019 136.741C248.065 136.741 250.643 137.754 252.748 139.775C254.852 141.8 255.903 144.259 255.903 147.149ZM249.075 147.149C249.075 145.707 248.716 144.563 247.994 143.718C247.274 142.881 246.28 142.459 245.019 142.459C243.757 142.459 242.76 142.881 242.04 143.718C241.32 144.563 240.957 145.707 240.957 147.149C240.957 148.599 241.32 149.735 242.04 150.562C242.76 151.391 243.757 151.804 245.019 151.804C246.28 151.804 247.274 151.391 247.994 150.562C248.716 149.735 249.075 148.599 249.075 147.149Z" fill="white"/>
<path d="M279.237 126.956H272.379V156.811H279.237V126.956Z" fill="white"/>
<path d="M305.347 147.306C305.347 149.175 305.242 150.551 305.03 151.447C304.716 152.79 304.04 153.972 303.015 154.997C301.305 156.707 298.721 157.56 295.272 157.56C291.871 157.56 289.279 156.707 287.486 154.997C286.512 154.049 285.852 152.907 285.508 151.568C285.302 150.62 285.193 149.202 285.193 147.306V137.372H291.74V147.743C291.74 149.317 291.992 150.462 292.491 151.174C293.015 151.961 293.911 152.356 295.173 152.356C296.436 152.356 297.327 151.961 297.852 151.174C298.354 150.462 298.604 149.317 298.604 147.743V137.372H305.347V147.306Z" fill="white"/>
<path d="M332.987 147.111C332.987 150.344 332.176 152.893 330.542 154.761C328.911 156.625 326.742 157.559 324.037 157.559C321.377 157.559 319.186 156.258 317.452 153.654V156.811H311.144V126.956H317.684V137.13C317.684 138.524 317.619 139.684 317.486 140.602C318.355 139.155 319.295 138.149 320.31 137.584C321.32 137.019 322.64 136.737 324.271 136.737C326.849 136.737 328.945 137.685 330.565 139.575C332.18 141.471 332.987 143.982 332.987 147.109V147.111ZM326.163 147.109C326.163 145.61 325.756 144.422 324.945 143.536C324.128 142.661 323.033 142.217 321.673 142.217C320.306 142.217 319.219 142.661 318.416 143.536C317.619 144.422 317.218 145.61 317.218 147.109C317.218 148.635 317.609 149.832 318.4 150.699C319.186 151.564 320.276 152 321.673 152C323.059 152 324.16 151.564 324.961 150.699C325.764 149.832 326.163 148.635 326.163 147.109Z" fill="white"/>
<path d="M345.397 131.297C345.397 132.35 345.024 133.255 344.275 134C343.525 134.748 342.642 135.121 341.611 135.121C340.56 135.121 339.667 134.742 338.932 133.982C338.198 133.215 337.825 132.326 337.825 131.297C337.825 130.274 338.198 129.387 338.932 128.64C339.667 127.888 340.56 127.513 341.611 127.513C342.666 127.513 343.561 127.884 344.296 128.618C345.03 129.356 345.397 130.248 345.397 131.297ZM345.042 156.814H338.184V137.372H345.042V156.814Z" fill="white"/>
<path d="M371.311 148.452H356.522C356.576 151.584 358.033 153.146 360.901 153.146C362.976 153.146 364.394 152.367 365.155 150.82L370.322 152.906C369.665 154.513 368.445 155.721 366.653 156.536C365.155 157.22 364.408 158.021 364.408 158.943C364.408 160.203 365.171 160.833 366.696 160.833C367.486 160.833 368.334 160.663 369.255 160.32V164.818C368.021 165.212 366.522 165.405 364.761 165.405C363.527 165.407 362.436 165.064 361.49 164.383C360.465 163.624 359.953 162.646 359.953 161.464C359.953 159.889 360.651 158.586 362.042 157.565H361.294C357.823 157.565 355.061 156.591 353.014 154.644C351.042 152.779 350.057 150.334 350.057 147.308C350.057 144.313 351.064 141.8 353.091 139.777C355.114 137.752 357.72 136.741 360.901 136.741C364.08 136.739 366.611 137.752 368.489 139.775C370.371 141.798 371.311 144.585 371.311 148.137V148.452ZM364.566 144.585C364.461 143.482 364.039 142.597 363.303 141.925C362.569 141.253 361.685 140.92 360.661 140.92C358.402 140.92 357.07 142.143 356.681 144.585L364.566 144.587V144.585Z" fill="white"/>
</svg>
