<?xml version="1.0" encoding="UTF-8" standalone="no"?>
<svg
   xmlns:dc="http://purl.org/dc/elements/1.1/"
   xmlns:cc="http://creativecommons.org/ns#"
   xmlns:rdf="http://www.w3.org/1999/02/22-rdf-syntax-ns#"
   xmlns:svg="http://www.w3.org/2000/svg"
   xmlns="http://www.w3.org/2000/svg"
   xmlns:sodipodi="http://sodipodi.sourceforge.net/DTD/sodipodi-0.dtd"
   xmlns:inkscape="http://www.inkscape.org/namespaces/inkscape"
   width="35.121208mm"
   height="3.0582635mm"
   viewBox="0 0 35.121208 3.0582635"
   version="1.1"
   id="svg8"
   inkscape:version="1.0.1 (3bc2e813f5, 2020-09-07)"
   sodipodi:docname="logo_Rakietomania.svg">
  <defs
     id="defs2" />
  <sodipodi:namedview
     id="base"
     pagecolor="#ffffff"
     bordercolor="#666666"
     borderopacity="1.0"
     inkscape:pageopacity="0.0"
     inkscape:pageshadow="2"
     inkscape:zoom="1.979899"
     inkscape:cx="39.191949"
     inkscape:cy="45.19428"
     inkscape:document-units="mm"
     inkscape:current-layer="layer1"
     inkscape:document-rotation="0"
     showgrid="false"
     fit-margin-top="0"
     fit-margin-left="0"
     fit-margin-right="0"
     fit-margin-bottom="0"
     inkscape:window-width="1460"
     inkscape:window-height="1032"
     inkscape:window-x="104"
     inkscape:window-y="0"
     inkscape:window-maximized="0" />
  <metadata
     id="metadata5">
    <rdf:RDF>
      <cc:Work
         rdf:about="">
        <dc:format>image/svg+xml</dc:format>
        <dc:type
           rdf:resource="http://purl.org/dc/dcmitype/StillImage" />
        <dc:title></dc:title>
      </cc:Work>
    </rdf:RDF>
  </metadata>
  <g
     inkscape:label="Warstwa 1"
     inkscape:groupmode="layer"
     id="layer1"
     transform="translate(-127.99555,-72.650525)">
    <path
       style="fill:#ffffff;stroke-width:0.0846667"
       d="m 148.70928,75.549225 c -0.0773,-0.08544 -0.25104,-0.635645 -0.38604,-1.222689 -0.27461,-1.194011 -0.30052,-1.25889 -0.476,-1.191552 -0.10131,0.03887 -0.12429,0.273014 -0.12429,1.266302 v 1.218608 h -0.254 -0.254 v -1.312333 c 0,-1.199445 0.0146,-1.3269 0.16933,-1.481667 0.23433,-0.23433 0.84685,-0.233685 1.05935,0.0011 0.0888,0.09818 0.25415,0.606137 0.38987,1.198013 0.12958,0.565161 0.26962,1.061574 0.31118,1.10314 0.13747,0.137468 0.24547,-0.127955 0.47168,-1.159268 0.24893,-1.134888 0.36943,-1.312333 0.89113,-1.312333 0.17075,0 0.39513,0.05931 0.49862,0.131801 0.18107,0.126828 0.18817,0.182733 0.18817,1.481666 v 1.349866 h -0.254 -0.254 v -1.227667 c 0,-1.15019 -0.0102,-1.227666 -0.16105,-1.227666 -0.13568,0 -0.19584,0.15011 -0.38176,0.9525 -0.12139,0.523875 -0.22036,0.994987 -0.21994,1.046915 4.2e-4,0.05193 -0.0782,0.194803 -0.17472,0.3175 -0.14066,0.17881 -0.24727,0.223085 -0.53722,0.223085 -0.24334,0 -0.40774,-0.05084 -0.50231,-0.155336 z m 8.44055,-0.03516 c -0.0935,-0.104775 -0.37635,-0.67538 -0.62859,-1.268011 -0.3365,-0.790595 -0.49808,-1.078041 -0.60679,-1.0795 -0.13439,-0.0018 -0.14817,0.112158 -0.14817,1.225677 v 1.227667 h -0.254 -0.254 v -1.341544 c 0,-1.531721 0.0361,-1.621789 0.64971,-1.621789 0.45473,0 0.55319,0.123863 1.12903,1.420393 0.2885,0.64957 0.5262,1.077273 0.5987,1.077273 0.0974,0 0.12468,-0.237438 0.14366,-1.248833 l 0.0234,-1.248833 h 0.25174 0.25173 v 1.354666 c 0,1.241778 -0.0141,1.368778 -0.16933,1.524 -0.24028,0.240285 -0.76386,0.229058 -0.98712,-0.02117 z m -29.15421,-0.5969 c 0,-0.433682 0.0389,-0.741633 0.1016,-0.804334 0.0634,-0.06335 0.37714,-0.1016 0.83354,-0.1016 0.60157,0 0.7569,-0.02758 0.87207,-0.154833 0.17597,-0.194452 0.17842,-0.38744 0.007,-0.558786 -0.10308,-0.103085 -0.32235,-0.133047 -0.97366,-0.133047 h -0.84062 v -0.254 -0.254 h 0.92735 c 0.98608,0 1.28765,0.07806 1.42633,0.369185 0.24285,0.509795 0.19451,0.874598 -0.16207,1.223225 l -0.24241,0.236995 0.30405,0.572591 0.30405,0.57259 -0.32255,-0.02679 c -0.29985,-0.02491 -0.3444,-0.06552 -0.63299,-0.577127 -0.3081,-0.546196 -0.31322,-0.550333 -0.68093,-0.550333 h -0.3705 l -0.025,0.5715 c -0.025,0.570942 -0.0253,0.5715 -0.27516,0.5715 h -0.25013 z m 2.84223,0.512233 c 0.23243,-0.742392 1.00064,-2.580594 1.11458,-2.667 0.15819,-0.119972 0.68496,-0.139516 0.85501,-0.03172 0.062,0.03933 0.35383,0.705501 0.6484,1.48037 l 0.53559,1.408852 h -0.31933 -0.31933 l -0.40394,-1.121833 c -0.22216,-0.617009 -0.4544,-1.176057 -0.51609,-1.24233 -0.0956,-0.102679 -0.12572,-0.0839 -0.20385,0.127 -0.0504,0.136123 -0.26475,0.695171 -0.47627,1.24233 l -0.38457,0.994833 h -0.29492 c -0.26707,0 -0.28929,-0.01799 -0.23528,-0.1905 z m 3.50777,-1.291167 v -1.481666 h 0.254 0.254 v 0.635 0.635 l 0.23283,-0.0012 c 0.49056,-0.0024 0.59638,-0.08498 0.87777,-0.684728 0.26894,-0.573212 0.28012,-0.584116 0.59879,-0.584116 h 0.32474 l -0.29341,0.582628 c -0.16137,0.320445 -0.35723,0.646448 -0.43523,0.72445 -0.13265,0.132651 -0.1301,0.152743 0.0395,0.310717 0.0997,0.09289 0.31461,0.43364 0.47756,0.757217 l 0.29627,0.588321 h -0.32416 c -0.31308,0 -0.33254,-0.01752 -0.56899,-0.512231 -0.29769,-0.622834 -0.31987,-0.642154 -0.82348,-0.717125 l -0.40216,-0.05987 v 0.644614 0.644613 h -0.254 -0.254 z m 2.96333,0 v -1.481666 h 0.254 0.254 v 1.481666 1.481667 h -0.254 -0.254 z m 1.33485,1.31492 c -0.11659,-0.09171 -0.23555,-0.284579 -0.26435,-0.428598 -0.06,-0.300199 0.13283,-0.842632 0.30101,-0.846563 0.0701,-0.0016 0.0587,-0.03263 -0.0317,-0.08532 -0.25059,-0.146209 -0.35052,-0.615724 -0.20511,-0.963717 0.16779,-0.40158 0.3856,-0.472388 1.45311,-0.472388 h 0.88348 v 0.254 0.254 h -0.79953 c -0.71802,0 -0.81232,0.01825 -0.92495,0.179053 -0.12715,0.181535 -0.0981,0.404862 0.0673,0.51815 0.05,0.03421 0.44327,0.06279 0.87401,0.0635 0.77858,0.0013 0.78316,0.0025 0.78316,0.212963 0,0.209702 -0.007,0.211667 -0.74316,0.211667 -0.9778,0 -1.36716,0.248248 -0.98646,0.628952 0.10309,0.103086 0.32236,0.133048 0.97367,0.133048 h 0.84062 v 0.254 0.254 h -1.00458 c -0.87119,0 -1.03273,-0.02214 -1.21657,-0.166747 z m 3.40648,-1.06092 v -1.227666 h -0.42333 c -0.41393,0 -0.42333,-0.0056 -0.42333,-0.254 v -0.254 h 1.143 1.143 v 0.254 c 0,0.248355 -0.009,0.254 -0.42334,0.254 h -0.42333 v 1.227666 1.227667 h -0.29633 -0.29634 z m 2.21741,1.056163 c -0.36095,-0.220062 -0.5504,-0.671036 -0.5504,-1.310163 0,-1.082495 0.40579,-1.481033 1.50799,-1.481033 1.10584,0 1.48167,0.375672 1.48167,1.481033 0,0.67537 -0.17295,1.09602 -0.54356,1.322013 -0.38077,0.232195 -1.50697,0.225155 -1.8957,-0.01185 z m 1.68392,-0.5777 c 0.34948,-0.431585 0.24536,-1.379039 -0.17599,-1.601523 -0.12706,-0.06709 -0.39136,-0.09892 -0.6612,-0.07964 -0.59953,0.04285 -0.79498,0.238301 -0.83783,0.837832 -0.0566,0.792199 0.27022,1.116053 1.06859,1.058811 0.34171,-0.0245 0.49625,-0.07941 0.60643,-0.215484 z m 5.71424,0.558704 c 0.23243,-0.742392 1.00064,-2.580594 1.11458,-2.667 0.1582,-0.119972 0.68496,-0.139516 0.85501,-0.03172 0.062,0.03933 0.35383,0.705501 0.6484,1.48037 l 0.53559,1.408852 h -0.31933 -0.31933 l -0.40394,-1.121833 c -0.22216,-0.617009 -0.4544,-1.176057 -0.51609,-1.24233 -0.0956,-0.102679 -0.12572,-0.0839 -0.20385,0.127 -0.0504,0.136123 -0.26475,0.695171 -0.47626,1.24233 l -0.38458,0.994833 h -0.29492 c -0.26707,0 -0.28929,-0.01799 -0.23528,-0.1905 z m 7.31777,-1.291167 v -1.481666 h 0.254 0.254 v 1.481666 1.481667 h -0.254 -0.254 z m 0.97956,1.291167 c 0.23243,-0.742392 1.00064,-2.580594 1.11458,-2.667 0.1582,-0.119972 0.68497,-0.139516 0.85501,-0.03172 0.062,0.03933 0.35383,0.705501 0.6484,1.48037 l 0.53559,1.408852 h -0.31933 -0.31933 l -0.40393,-1.121833 c -0.22216,-0.617009 -0.45441,-1.176057 -0.5161,-1.24233 -0.0956,-0.102679 -0.12572,-0.0839 -0.20385,0.127 -0.0504,0.136123 -0.26474,0.695171 -0.47626,1.24233 l -0.38458,0.994833 h -0.29492 c -0.26707,0 -0.28929,-0.01799 -0.23528,-0.1905 z"
       id="path56" />
  </g>
</svg>
